<svg xmlns="http://www.w3.org/2000/svg" viewBox="0 0 360 360" enable-background="new 0 0 360 360"><path d="M257.936 153.794c-.025 1.66-.713 3.545-2.127 5.146-.407.46-.85.888-1.284 1.322l-67.61 67.62c-4.257 4.26-9.09 4.255-13.353-.007l-68.058-68.04c-3.025-3.026-3.796-6.733-2.132-10.192 2.4-4.987 8.858-6.387 13.12-2.817.876.735 1.66 1.58 2.47 2.392 20.106 20.103 40.215 40.204 60.296 60.332.776.78 1.162.81 1.96.01 20.54-20.596 41.117-41.155 61.67-61.74 2.676-2.678 5.742-3.714 9.39-2.485 3.402 1.144 5.65 4.393 5.656 8.46z" fill-rule="evenodd" clip-rule="evenodd" fill="#fff"/></svg>