<svg xmlns="http://www.w3.org/2000/svg" viewBox="0 0 360 360" enable-background="new 0 0 360 360"><g fill-rule="evenodd" clip-rule="evenodd" fill="#fff"><path d="M223.392 95.16c-28.438 0-56.875.035-85.312-.02-9.59-.018-16.697-4.414-20.666-13.132-6.476-14.226 3.56-30.244 19.223-31.013.722-.035 1.445-.043 2.168-.043 56.49-.002 112.978.008 169.467-.012 9.18-.003 16.262 3.706 20.68 11.805 7.68 14.08-2.356 31.66-18.368 32.372-.77.034-1.54.04-2.313.04-28.293.003-56.586.003-84.878.003zM223.538 160.44c28.486 0 56.973-.044 85.46.023 9.654.022 16.71 4.536 20.692 13.32 6.037 13.315-3.036 29.037-17.528 30.66-1.05.118-2.11.21-3.167.21-57.02.01-114.04.012-171.062.008-11.006 0-20.023-7.404-22.092-18.108-2.554-13.21 7.636-25.925 21.084-26.07 12.627-.138 25.256-.042 37.884-.044 16.243-.002 32.486 0 48.73 0zM223.437 314.612c-28.535 0-57.068.005-85.603-.003-11.05-.004-20.022-7.468-22.05-18.31-2.303-12.302 6.808-24.48 19.226-25.688 1.1-.107 2.21-.2 3.314-.2 56.78-.008 113.558-.02 170.337.006 9.493.004 16.635 4.182 20.765 12.787 6.45 13.438-2.292 29.242-17.075 31.205-1.202.16-2.398.2-3.6.2-28.437.003-56.876.003-85.313.002zM63.42 217.156c-18.66.234-34.62-15.53-34.285-34.923.315-18.257 15.65-34.086 35.147-33.663 18.312.397 33.94 15.845 33.483 35.175-.432 18.337-15.76 33.637-34.344 33.41zm.07-65.12c-16.937-.195-30.884 13.937-30.923 30.775-.04 16.83 13.837 30.9 30.78 30.957 17.018.058 30.998-14.017 30.995-30.885-.002-16.87-13.95-31.006-30.852-30.847zM63.343 327.058c-18.622.19-34.507-15.542-34.208-34.857.282-18.297 15.634-34.115 35.082-33.73 18.32.365 34.046 15.817 33.546 35.257-.47 18.315-15.812 33.6-34.42 33.33zM32.61 292.696c-.24 16.834 13.787 30.907 30.72 30.972 17.026.067 30.93-13.995 31.013-30.722.084-16.897-13.86-31.02-30.834-31.047-16.943-.028-31.044 13.965-30.9 30.796zM97.73 73.062c.196 18.732-15.654 34.6-34.974 34.24C44.532 106.958 28.69 91.61 29.14 72.1c.42-18.124 15.698-33.906 35.23-33.426 18.347.45 33.602 15.794 33.36 34.388zm-3.432.016c.248-16.893-13.853-30.916-30.71-30.984-16.955-.07-30.93 13.915-31.022 30.715-.092 16.83 13.773 31.02 30.826 31.053 17.02.034 31.057-14.04 30.906-30.785zM63.758 205.007c-4.19 0-8.383-.037-12.574.024-1.14.017-1.502-.317-1.492-1.474.05-5.926.03-11.85.015-17.777-.002-.698.052-1.373.544-1.883 1.27-1.318 2.56-2.615 3.87-3.89.478-.465 1.123-.46 1.763-.46 3.516.015 7.033.013 10.55.005 1.424-.002 2.07-.653 2.082-2.092.013-1.638.005-3.276.003-4.914-.002-1.89-.9-2.8-2.765-2.803-1.878-.003-3.758.036-5.636-.018-.777-.022-.945.248-.966.983-.097 3.373-.122 3.373-3.527 3.373-1.542 0-3.084-.03-4.625.01-.895.024-1.323-.25-1.298-1.23.053-2.07.015-4.143.018-6.214 0-.24-.006-.49.055-.717.494-1.875 5.126-5.424 7.07-5.43 4.72-.01 9.442-.005 14.163-.042 1.33-.01 2.402.41 3.328 1.38 4.232 4.433 3.614 2.516 3.657 8.876.026 3.806-.02 7.612.02 11.418.012 1.29-.547 2.187-1.322 3.196-2.232 2.907-5.008 3.997-8.628 3.55-2.088-.256-4.234-.053-6.353-.044-1.64.006-2.562.91-2.523 2.57.033 1.42-.622 3.323.278 4.124.79.702 2.654.217 4.044.22 4.288.01 8.576.04 12.863-.02 1.208-.015 1.65.44 1.633 1.59-.03 2.072-.033 4.143.002 6.215.018 1.09-.372 1.516-1.528 1.5-4.24-.062-8.48-.026-12.72-.026zM63.85 315.22h-7.52c-.24 0-.482.02-.722.002-1.325-.104-5.565-4.43-5.59-5.773-.042-2.12.005-4.242-.022-6.363-.01-.864.347-1.21 1.21-1.202 2.36.026 4.723.043 7.084-.005 1.065-.022 1.137.618 1.173 1.396.125 2.668.13 2.667 2.833 2.667h4.193c1.167 0 1.776-.627 1.813-1.748.048-1.444.033-2.89.006-4.337-.024-1.226-1.045-2.25-2.278-2.273-1.638-.03-3.278-.03-4.916.003-.674.013-1.033-.062-1.01-.91.063-2.504.048-5.012.006-7.517-.012-.71.216-.89.896-.874 1.782.044 3.566 0 5.35.02 1.313.013 1.93-.662 1.952-1.922.023-1.3.015-2.603.003-3.904-.015-1.62-.946-2.536-2.59-2.545-1.735-.01-3.472.032-5.205-.017-.78-.023-1.07.157-1.083 1.015-.047 3.05-.084 3.05-3.108 3.05-1.687 0-3.374-.022-5.06.006-.924.013-1.292-.37-1.274-1.3.04-2.073.023-4.145.005-6.218-.005-.56.128-1.082.492-1.463 1.297-1.358 2.632-2.68 3.964-4.002.373-.37.867-.354 1.356-.354 5.398.006 10.796.004 16.194.004.144 0 .29-.012.433.006 1.362.182 5.324 4.613 5.328 5.998.013 4.096-.046 8.195.03 12.29.03 1.566-1.036 2.345-1.97 3.168-1.074.946-1.206 1.66.008 2.516 1.647 1.164 2.076 2.765 1.978 4.754-.155 3.173-.048 6.36-.035 9.54.002.636.024 1.286-.437 1.77-1.33 1.39-2.68 2.764-4.05 4.117-.44.433-1.043.41-1.632.407-2.6-.013-5.203-.005-7.807-.005zM68.516 73.325c0 6.836-.024 13.674.023 20.51.008 1.192-.33 1.633-1.558 1.583-2.115-.086-4.24-.09-6.353.002-1.183.052-1.506-.403-1.497-1.494.034-4.285.014-8.57.014-12.855 0-6.403-.022-12.806.022-19.21.006-1.006-.266-1.312-1.282-1.285-2.65.07-3.748.446-2.112-3.05.788-1.685 1.426-3.44 2.1-5.177.332-.857.82-1.264 1.824-1.23 2.404.08 4.816.09 7.22 0 1.323-.05 1.626.482 1.618 1.698-.045 6.835-.022 13.672-.022 20.51z"/></g></svg>