<svg xmlns="http://www.w3.org/2000/svg" viewBox="0 0 197.747 49.968" enable-background="new 0 0 197.747 49.968"><g fill="#fff"><path d="M37.368 48.96v.216c-.097.288-.24.504-.432.648-.048 0-.072.012-.072.036 0 .025-.024.036-.072.036l-.072.072h-.144l-.144.072h-9c-.53 0-.864-.336-1.008-1.008l-5.04-18.144-.504-3.6-.432 3.6-5.616 18.144c-.24.672-.6 1.008-1.08 1.008h-9c-.048 0-.072-.01-.072-.036 0-.023-.024-.036-.072-.036-.048 0-.084-.01-.108-.036-.025-.024-.06-.036-.108-.036s-.072-.023-.072-.072c-.288-.144-.432-.36-.432-.648-.048 0-.072-.024-.072-.072v-.144L0 .864C0 .624.096.396.288.18c.19-.216.432-.324.72-.324h8.496c.288 0 .54.108.756.324.216.216.324.444.324.684l1.728 24.48 4.104-11.16c.096-.24.263-.468.504-.684.24-.216.504-.324.792-.324h5.76c.288 0 .55.108.792.324.24.216.432.444.576.684l4.032 11.16 1.8-24.48c0-.24.096-.468.288-.684.19-.216.432-.324.72-.324h8.568c.24 0 .468.108.684.324.216.216.324.444.324.684L37.368 48.96zM85.823.72v48.312c0 .672-.336 1.008-1.008 1.008h-8.568c-.24 0-.468-.096-.684-.288-.216-.19-.324-.432-.324-.72V30.168h-10.8v18.864c0 .288-.11.528-.325.72-.216.192-.444.288-.684.288h-8.567c-.673 0-1.008-.336-1.008-1.008V.72c0-.672.335-1.008 1.008-1.008h8.568c.24 0 .47.097.685.288.216.192.324.432.324.72v18.864h10.8V.72c0-.288.107-.528.323-.72.216-.19.443-.288.684-.288h8.568c.67 0 1.008.336 1.008 1.008zM109.8.936v48.096c0 .672-.338 1.008-1.01 1.008h-8.567c-.673 0-1.008-.336-1.008-1.008V.936c0-.67.335-1.008 1.008-1.008h8.567c.672 0 1.01.337 1.01 1.008zM156.023.648V48.96c0 .24-.097.468-.288.684-.192.216-.433.324-.72.324H143.64c-.29 0-.554-.108-.793-.324-.24-.216-.41-.443-.505-.684l-8.784-24.048V48.96c0 .24-.107.468-.323.684-.216.216-.444.324-.685.324h-8.567c-.288 0-.528-.108-.72-.324-.193-.216-.29-.443-.29-.684V.648c0-.67.337-1.008 1.01-1.008h10.728c.528 0 .865.336 1.01 1.008h.07l9.505 27.792.145.792V.648c0-.288.107-.527.323-.72.217-.19.443-.288.685-.288h8.568c.67 0 1.007.337 1.007 1.008zM180.43 19.584h12.744c.672 0 1.008.336 1.008 1.008v8.568c0 .673-.336 1.008-1.008 1.008H180.43v9.288h16.632c.24 0 .468.097.685.288.216.192.323.432.323.72v8.568c0 .288-.107.528-.323.72-.217.192-.444.288-.685.288h-26.208c-.673 0-1.008-.336-1.008-1.008V.72c0-.672.335-1.008 1.008-1.008h26.208c.24 0 .468.097.685.288.216.192.323.432.323.72v8.568c0 .288-.107.53-.323.72-.217.192-.444.288-.685.288H180.43v9.288z"/></g></svg>