<svg xmlns="http://www.w3.org/2000/svg" viewBox="134.8 186.5 231.4 127.2" enable-background="new 134.8 186.5 231.4 127.2"><path fill="#fff" d="M161.6 308.5s.4-.6 1.2-1.7c.4-.5.9-1.2 1.5-2 .3-.4.6-.8 1-1.3.4-.4.8-.9 1.2-1.4.8-1 1.8-2.1 2.9-3.2l3.6-3.6c1.3-1.3 2.8-2.5 4.3-3.8 1.5-1.3 3.3-2.6 5.1-4 1.8-1.3 3.8-2.6 5.8-3.9 1-.6 2.1-1.2 3.2-1.9.5-.3 1.1-.6 1.6-1 .6-.3 1.1-.6 1.7-.9 1.1-.6 2.3-1.2 3.5-1.8 1.2-.6 2.4-1.1 3.7-1.7.6-.3 1.2-.6 1.9-.8.6-.3 1.3-.5 1.9-.7 1.3-.5 2.6-1 4-1.5 1.3-.4 2.7-.9 4.1-1.3l2.1-.6c.7-.2 1.4-.4 2.1-.5 1.4-.3 2.8-.7 4.3-1 1.5-.3 2.9-.5 4.4-.8 5.9-1 12-1.6 18.1-1.5H247.1l2.2.1c1.5.1 2.8.1 4.4.3 1.6.1 3.1.3 4.6.5 1.5.2 3 .5 4.5.7 1.5.2 2.9.5 4.4.8 1.4.3 2.9.6 4.3 1s2.8.8 4.2 1.1c1.4.4 2.7.9 4.1 1.4 1.4.4 2.7.9 4 1.5 1.3.5 2.6 1 3.8 1.6 2.5 1.2 4.9 2.2 7.2 3.5 4.6 2.4 8.7 5.1 12.3 7.7 1.8 1.4 3.5 2.7 5.1 4 1.5 1.4 3 2.6 4.3 3.8l3.6 3.6c1.1 1.1 2 2.2 2.9 3.2 1.7 1.9 2.9 3.6 3.7 4.7.8 1.1 1.2 1.7 1.2 1.7l-1.8-1.2c-1.1-.8-2.8-1.9-4.9-3.3-1.1-.7-2.2-1.5-3.5-2.2-1.3-.8-2.7-1.6-4.2-2.5-1.5-.8-3.1-1.7-4.8-2.6-1.7-.9-3.5-1.8-5.4-2.7-1.9-.8-3.9-1.9-6-2.7-1.1-.4-2.1-.9-3.2-1.3l-3.3-1.2c-2.2-.9-4.6-1.6-6.9-2.4-1.2-.4-2.4-.7-3.6-1-1.2-.4-2.4-.7-3.7-1-5-1.3-10.2-2.2-15.6-2.9-1.3-.2-2.7-.3-4-.5l-3.9-.3c-1.3-.1-2.8-.1-4.2-.2l-2.2-.1h-.6.1-5.5c-1.4.1-2.7.2-4.1.2-1.4.1-2.7.2-4.1.3-1.3.1-2.7.2-4 .4-5.3.7-10.5 1.7-15.6 2.9-2.5.7-5 1.3-7.3 2.1-1.2.4-2.4.7-3.5 1.1-1.1.4-2.3.8-3.4 1.2-.6.2-1.1.4-1.7.6-.5.2-1.1.4-1.6.7-1.1.4-2.1.9-3.2 1.3-2.1.9-4.1 1.8-6 2.7-1.9.9-3.7 1.8-5.4 2.7-1.7.9-3.3 1.8-4.8 2.6-1.5.9-2.9 1.7-4.2 2.5-1.3.8-2.4 1.6-3.5 2.2-2.1 1.3-3.8 2.5-4.9 3.3-1.2.6-1.8 1-1.8 1z"/><g fill="#fff"><path d="M180.6 240.8v.2c-.1.3-.2.5-.4.6h-.2l-.1.1h-.1l-.1.1h-9c-.5 0-.9-.3-1-1l-5-18.1-.5-3.6-.4 3.6-5.6 18.1c-.2.7-.6 1-1.1 1H147.7s-.1 0-.1-.1c-.3-.1-.4-.4-.4-.6 0 0-.1 0-.1-.1v-.1l-3.8-48.1c0-.2.1-.5.3-.7.2-.2.4-.3.7-.3h8.5c.3 0 .5.1.8.3s.3.4.3.7l1.7 24.5 4.1-11.2c.1-.2.3-.5.5-.7.2-.2.5-.3.8-.3h5.8c.3 0 .6.1.8.3.2.2.4.4.6.7l4 11.2 1.8-24.5c0-.2.1-.5.3-.7.2-.2.4-.3.7-.3h8.6c.2 0 .5.1.7.3.2.2.3.4.3.7l-4 48zM229.1 192.6v48.3c0 .7-.3 1-1 1h-8.6c-.2 0-.5-.1-.7-.3-.2-.2-.3-.4-.3-.7V222h-10.8v18.9c0 .3-.1.5-.3.7-.2.2-.4.3-.7.3h-8.6c-.7 0-1-.3-1-1v-48.3c0-.7.3-1 1-1h8.6c.2 0 .5.1.7.3.2.2.3.4.3.7v18.9h10.8v-18.9c0-.3.1-.5.3-.7.2-.2.4-.3.7-.3h8.6c.7 0 1 .3 1 1zM253.1 192.8v48.1c0 .7-.3 1-1 1h-8.6c-.7 0-1-.3-1-1v-48.1c0-.7.3-1 1-1h8.6c.6 0 1 .3 1 1zM299.3 192.5v48.3c0 .2-.1.5-.3.7-.2.2-.4.3-.7.3h-11.4c-.3 0-.6-.1-.8-.3-.2-.2-.4-.4-.5-.7l-8.8-24v24c0 .2-.1.5-.3.7s-.4.3-.7.3h-8.6c-.3 0-.5-.1-.7-.3-.2-.2-.3-.4-.3-.7v-48.3c0-.7.3-1 1-1H278c.5 0 .9.3 1 1h.1l9.5 27.8.1.8v-28.6c0-.3.1-.5.3-.7.2-.2.4-.3.7-.3h8.6c.7 0 1 .3 1 1zM323.7 211.4h12.7c.7 0 1 .3 1 1v8.6c0 .7-.3 1-1 1h-12.7v9.3h16.6c.2 0 .5.1.7.3.2.2.3.4.3.7v8.6c0 .3-.1.5-.3.7-.2.2-.4.3-.7.3h-26.2c-.7 0-1-.3-1-1v-48.3c0-.7.3-1 1-1h26.2c.2 0 .5.1.7.3.2.2.3.4.3.7v8.6c0 .3-.1.5-.3.7-.2.2-.4.3-.7.3h-16.6v9.2z"/></g><g fill="#FCFCFC"><path d="M149.3 249h-2.7l.2-.8h6.2l-.2.8h-2.7l-1.9 7.1h-.9l2-7.1zM154.4 247.9h.9l-.9 3.4c.5-.6 1.1-1.1 2-1.1 1.1 0 1.9.7 1.9 1.8 0 .3-.1.6-.1.9l-.9 3.3h-.9l.9-3.3c.1-.2.1-.5.1-.7 0-.8-.5-1.2-1.3-1.2-.9 0-1.8.8-2.1 1.9l-.9 3.3h-.9l2.2-8.3zM160.3 253.7c0 1.1.7 1.8 1.8 1.8.8 0 1.3-.3 1.8-.7l.5.6c-.6.5-1.3.9-2.3.9-1.5 0-2.6-1-2.6-2.5 0-1.8 1.4-3.6 3.4-3.6 1.5 0 2.3 1 2.3 2.2 0 .4-.1.8-.2 1.1h-4.6c-.1.1-.1.2-.1.2zm3.9-.8c0-.1.1-.2.1-.5 0-.8-.5-1.5-1.5-1.5-1.2 0-2 .9-2.3 2h3.7zM170.7 250.3h.9l-.2.9c.5-.6 1.1-1.1 1.9-1.1 1 0 1.5.6 1.7 1.3.5-.8 1.3-1.3 2.4-1.3 1.1 0 1.8.7 1.8 1.8 0 .3-.1.6-.2.9l-.9 3.3h-.9l.9-3.3c0-.2.1-.5.1-.7 0-.8-.5-1.2-1.2-1.2-.9 0-1.7.8-2 1.9l-.9 3.3h-.9l.9-3.3c.1-.2.1-.5.1-.7 0-.8-.5-1.2-1.2-1.2-.9 0-1.7.8-2 1.9l-.9 3.3h-.9l1.5-5.8zM180.3 253.6c0-1.8 1.6-3.5 3.4-3.5 1.6 0 2.7 1.1 2.7 2.6 0 1.9-1.6 3.5-3.4 3.5-1.7.1-2.7-1-2.7-2.6zm5.2-.8c0-1.2-.7-1.9-1.8-1.9-1.3 0-2.5 1.3-2.5 2.7 0 1.2.7 1.9 1.8 1.9 1.3 0 2.5-1.3 2.5-2.7zM186.8 255.2l.6-.6c.6.6 1.3.9 2 .9s1.3-.4 1.3-1c0-.4-.3-.7-1.1-1-1.1-.4-1.6-.8-1.6-1.6 0-1 .9-1.8 2.2-1.8.9 0 1.7.4 2.2.8l-.5.6c-.5-.4-1.1-.7-1.7-.7-.8 0-1.3.4-1.3.9 0 .4.2.6 1.2 1 1.1.4 1.6.8 1.6 1.6 0 1.1-1 1.8-2.2 1.8-1 .2-2-.2-2.7-.9zM193.3 255.1c0-.2 0-.4.1-.6l.9-3.4h-.8l.2-.8h.8l.5-1.8h.9l-.5 1.8h1.8l-.2.8h-1.8l-.9 3.4v.4c0 .4.3.6.8.6.3 0 .5-.1.8-.2l-.2.8c-.3.1-.6.2-.9.2-1-.1-1.5-.5-1.5-1.2zM202.1 250.3h.9l-.2.9c.5-.6 1.1-1.1 2-1.1 1.1 0 1.9.7 1.9 1.8 0 .3-.1.6-.1.9l-.9 3.3h-.9l.9-3.3c.1-.2.1-.5.1-.7 0-.8-.5-1.2-1.3-1.2-.9 0-1.8.8-2.1 1.9l-.9 3.3h-.9l1.5-5.8zM208.7 253.7c0 1.1.7 1.8 1.8 1.8.8 0 1.3-.3 1.8-.7l.5.6c-.6.5-1.3.9-2.3.9-1.5 0-2.6-1-2.6-2.5 0-1.8 1.4-3.6 3.4-3.6 1.5 0 2.3 1 2.3 2.2 0 .4-.1.8-.2 1.1h-4.6c-.1.1-.1.2-.1.2zm3.8-.8c0-.1.1-.2.1-.5 0-.8-.5-1.5-1.5-1.5-1.2 0-2 .9-2.4 2h3.8zM213.8 256.9l.5-.6c.6.5 1.4.9 2.3.9.7 0 1.3-.2 1.6-.6.4-.4.6-.8.7-1.4l.2-.6c-.6.6-1.3 1-2.2 1-1.2 0-2.4-.8-2.4-2.2 0-1.9 1.6-3.3 3.3-3.3 1.3 0 1.8.7 2.1 1.4l.3-1.3h.9l-1.3 5c-.2.9-.5 1.4-.9 1.8-.5.5-1.3.8-2.3.8-1.1.2-2.1-.2-2.8-.9zm5.8-4.3c0-.9-.7-1.6-1.8-1.6-1.2 0-2.4 1-2.4 2.4 0 1 .8 1.6 1.7 1.6 1.4-.1 2.5-1.2 2.5-2.4zM221.6 254.6c0-1.3 1.1-2.1 2.6-2.1.8 0 1.5.2 2.1.3v-.1c0-.2.1-.4.1-.5 0-.8-.5-1.2-1.6-1.2-.6 0-1.1.1-1.6.3l-.1-.7c.6-.2 1.2-.4 1.9-.4 1.5 0 2.3.7 2.3 1.8 0 .2 0 .5-.1.8l-.9 3.3h-.8l.2-.9c-.5.6-1.3 1-2.2 1-1.1.1-1.9-.5-1.9-1.6zm4.4-.8l.1-.4c-.5-.1-1.2-.3-1.9-.3-1 0-1.8.6-1.8 1.4 0 .6.5 1 1.2 1 1.1.1 2.1-.6 2.4-1.7zM228.6 255.1c0-.2 0-.4.1-.6l.9-3.4h-.8l.2-.8h.8l.5-1.8h.9l-.5 1.8h1.8l-.2.8h-1.8l-.9 3.4v.4c0 .4.3.6.8.6.3 0 .5-.1.8-.2l-.2.8c-.3.1-.6.2-.9.2-.9-.1-1.5-.5-1.5-1.2zM234.1 250.3h.9l-1.6 5.8h-.9l1.6-5.8zm.6-2.2h1l-.3 1h-1l.3-1zM236.2 250.3h.9l.7 4.8 3.2-4.8h1l-4.1 5.9h-.8l-.9-5.9zM242.8 253.7c0 1.1.7 1.8 1.8 1.8.8 0 1.3-.3 1.8-.7l.5.6c-.6.5-1.3.9-2.3.9-1.5 0-2.6-1-2.6-2.5 0-1.8 1.4-3.6 3.4-3.6 1.5 0 2.3 1 2.3 2.2 0 .4-.1.8-.2 1.1h-4.6c-.1.1-.1.2-.1.2zm3.9-.8c0-.1.1-.2.1-.5 0-.8-.5-1.5-1.5-1.5-1.2 0-2 .9-2.4 2h3.8zM251.4 255.2l.6-.6c.6.6 1.3.9 2 .9s1.3-.4 1.3-1c0-.4-.3-.7-1.1-1-1.1-.4-1.6-.8-1.6-1.6 0-1 .9-1.8 2.2-1.8.9 0 1.7.4 2.2.8l-.5.6c-.5-.4-1.1-.7-1.7-.7-.8 0-1.3.4-1.3.9 0 .4.2.6 1.2 1 1.1.4 1.6.8 1.6 1.6 0 1.1-1 1.8-2.2 1.8-1.1.2-2-.2-2.7-.9zM258.9 250.3h.9l-1.6 5.8h-.9l1.6-5.8zm.5-2.2h1l-.3 1h-1l.3-1zM260.9 255.1c0-.2 0-.4.1-.6l.9-3.4h-.8l.2-.8h.8l.5-1.8h.9l-.5 1.8h1.8l-.2.8h-1.8l-.9 3.4v.4c0 .4.3.6.8.6.3 0 .5-.1.8-.2l-.2.8c-.3.1-.6.2-.9.2-.9-.1-1.5-.5-1.5-1.2zM265.9 253.7c0 1.1.7 1.8 1.8 1.8.8 0 1.3-.3 1.8-.7l.5.6c-.6.5-1.3.9-2.3.9-1.5 0-2.6-1-2.6-2.5 0-1.8 1.4-3.6 3.4-3.6 1.5 0 2.3 1 2.3 2.2 0 .4-.1.8-.2 1.1H266c-.1.1-.1.2-.1.2zm3.9-.8c0-.1.1-.2.1-.5 0-.8-.5-1.5-1.5-1.5-1.2 0-2 .9-2.4 2h3.8zM276.3 250.3h.9l-1.6 5.8h-.9l1.6-5.8zm.6-2.2h1l-.3 1h-1l.3-1zM279.2 250.3h.9l-.2.9c.5-.6 1.1-1.1 2-1.1 1.1 0 1.9.7 1.9 1.8 0 .3-.1.6-.1.9l-.9 3.3h-.9l.9-3.3c.1-.2.1-.5.1-.7 0-.8-.5-1.2-1.3-1.2-.9 0-1.8.8-2.1 1.9l-.9 3.3h-.9l1.5-5.8zM288.7 255.1c0-.2 0-.4.1-.6l.9-3.4h-.8l.2-.8h.8l.5-1.8h.9l-.5 1.8h1.8l-.2.8h-1.8l-.9 3.4v.4c0 .4.3.6.8.6.3 0 .5-.1.8-.2l-.2.8c-.3.1-.6.2-.9.2-1-.1-1.5-.5-1.5-1.2zM294.7 247.9h.9l-.9 3.4c.5-.6 1.1-1.1 2-1.1 1.1 0 1.9.7 1.9 1.8 0 .3-.1.6-.1.9l-.9 3.3h-.9l.9-3.3c.1-.2.1-.5.1-.7 0-.8-.5-1.2-1.3-1.2-.9 0-1.8.8-2.1 1.9l-.9 3.3h-.9l2.2-8.3zM300.7 253.7c0 1.1.7 1.8 1.8 1.8.8 0 1.3-.3 1.8-.7l.5.6c-.6.5-1.3.9-2.3.9-1.5 0-2.6-1-2.6-2.5 0-1.8 1.4-3.6 3.4-3.6 1.5 0 2.3 1 2.3 2.2 0 .4-.1.8-.2 1.1h-4.6c-.1.1-.1.2-.1.2zm3.9-.8c0-.1.1-.2.1-.5 0-.8-.5-1.5-1.5-1.5-1.2 0-2 .9-2.4 2h3.8zM310.4 250.3h.9l.3 4.7 2.8-4.7h.7l.3 4.7 2.8-4.7h.9l-3.6 5.9h-.8l-.3-4.6-2.8 4.6h-.8l-.4-5.9zM319.3 253.6c0-1.8 1.6-3.5 3.4-3.5 1.6 0 2.7 1.1 2.7 2.6 0 1.9-1.6 3.5-3.4 3.5-1.7.1-2.7-1-2.7-2.6zm5.2-.8c0-1.2-.7-1.9-1.8-1.9-1.3 0-2.5 1.3-2.5 2.7 0 1.2.7 1.9 1.8 1.9 1.3 0 2.5-1.3 2.5-2.7zM327.7 250.3h.9l-.4 1.5c.7-1 1.6-1.7 2.8-1.6l-.2.9h-.1c-1.3 0-2.6.9-3 2.7l-.6 2.3h-.9l1.5-5.8zM332.9 247.9h.9l-2.2 8.2h-.9l2.2-8.2zM334 253.8c0-2.1 1.6-3.6 3.3-3.6 1.2 0 1.9.7 2.2 1.4l1-3.7h.9l-2.2 8.2h-.9l.3-1c-.6.6-1.3 1.1-2.2 1.1-1.4.1-2.4-.9-2.4-2.4zm5.2-1.1c0-1-.7-1.8-1.8-1.8-1.4 0-2.4 1.3-2.4 2.8 0 1.1.7 1.8 1.6 1.8 1.3 0 2.6-1.3 2.6-2.8z"/></g><path fill="#fff" d="M356.6 269.5c0 3.6-2.9 7-6.5 7s-6.5-2.9-6.5-6.5 2.9-6.5 6.5-6.5 6.5 2.4 6.5 6zM356.6 270.5l-3 1.4-2.3 1-7.1-3.5s0-2.2.9-3.3c1.3-1.6 3.5-3.4 3.4-6.1-.1-2.2-1.7-4.6-3.7-7.2-.1-.1 13.6 6.2 11.8 17.7z"/></svg>