<svg xmlns="http://www.w3.org/2000/svg" viewBox="0 228.324 613 335.353" enable-background="new 0 228.324 613 335.353"><path d="M519.28 563.676c-65.86-73.545-144.13-114.4-249.72-114.4-99.693 0-189.054 44.238-249.526 114.153 0 0 97.916-44.704 249.624-44.704 125.018 0 249.623 44.95 249.623 44.95z" fill="#fff"/><g fill="#fff"><path d="M104.982 366.074v.607c-.273.81-.677 1.417-1.214 1.82-.135 0-.202.035-.202.102 0 .07-.067.1-.202.1l-.202.203h-.405l-.405.202H77.067c-1.486 0-2.427-.944-2.832-2.832L60.075 315.3l-1.415-10.113-1.214 10.114-15.778 50.975c-.677 1.888-1.688 2.832-3.034 2.832H13.35c-.135 0-.202-.03-.202-.1 0-.066-.067-.102-.202-.102s-.236-.03-.303-.1c-.07-.068-.17-.102-.303-.102-.135 0-.202-.065-.202-.202-.81-.404-1.214-1.01-1.214-1.82-.135 0-.202-.066-.202-.2v-.406L0 230.954c0-.675.27-1.316.81-1.923.536-.606 1.213-.91 2.022-.91h23.87c.808 0 1.516.304 2.123.91.607.608.91 1.248.91 1.923l4.855 68.774 11.53-31.353c.27-.674.74-1.315 1.416-1.922.674-.607 1.416-.91 2.225-.91h16.183c.81 0 1.548.303 2.225.91.674.607 1.214 1.247 1.618 1.922l11.327 31.353 5.057-68.774c0-.674.27-1.315.81-1.922.536-.606 1.213-.91 2.022-.91h24.07c.672 0 1.316.304 1.923.91.607.608.91 1.248.91 1.923l-10.923 135.12zM241.11 230.55v135.727c0 1.888-.943 2.832-2.83 2.832h-24.072c-.677 0-1.315-.27-1.922-.81-.607-.537-.91-1.214-.91-2.023V313.28h-30.342v52.997c0 .81-.303 1.483-.91 2.023s-1.247.81-1.922.81h-24.07c-1.892 0-2.833-.945-2.833-2.833V230.55c0-1.89.94-2.833 2.83-2.833h24.072c.674 0 1.315.273 1.922.81.607.538.91 1.213.91 2.022v52.996h30.342V230.55c0-.81.303-1.484.91-2.024.607-.537 1.245-.81 1.922-.81h24.07c1.887 0 2.833.945 2.833 2.833zM308.47 231.156v135.12c0 1.89-.948 2.833-2.836 2.833h-24.068c-1.89 0-2.832-.945-2.832-2.833v-135.12c0-1.89.94-2.833 2.832-2.833h24.068c1.89 0 2.835.944 2.835 2.832zM438.33 230.346v135.728c0 .677-.272 1.315-.808 1.922-.54.607-1.216.91-2.023.91h-31.96c-.81 0-1.555-.303-2.226-.91-.677-.607-1.15-1.245-1.42-1.922l-24.677-67.56v67.56c0 .677-.3 1.315-.907 1.922s-1.247.91-1.924.91h-24.068c-.81 0-1.483-.303-2.023-.91-.542-.607-.812-1.245-.812-1.922V230.346c0-1.885.944-2.832 2.835-2.832h30.14c1.48 0 2.426.944 2.83 2.832h.203l26.702 78.08.407 2.224v-80.304c0-.81.3-1.48.906-2.023.61-.537 1.245-.81 1.924-.81h24.07c1.884.002 2.83.946 2.83 2.833zM506.9 283.545h35.803c1.888 0 2.832.944 2.832 2.832v24.07c0 1.892-.944 2.833-2.832 2.833H506.9v26.094h46.726c.674 0 1.315.272 1.924.81.607.538.907 1.213.907 2.022v24.07c0 .81-.3 1.484-.907 2.024-.61.54-1.247.81-1.924.81h-73.63c-1.89 0-2.83-.945-2.83-2.833V230.55c0-1.89.94-2.833 2.83-2.833h73.63c.674 0 1.315.273 1.924.81.607.538.907 1.213.907 2.022v24.07c0 .81-.3 1.486-.907 2.023-.61.54-1.247.81-1.924.81H506.9v26.092z"/></g><g fill="#FCFCFC"><path d="M16.993 389.94H9.53l.632-2.31h17.43l-.634 2.31H19.49L14.18 409.77H11.68l5.313-19.833zM31.225 386.68h2.435l-2.53 9.397c1.486-1.676 3.194-3.004 5.693-3.004 3.163 0 5.218 1.96 5.218 5.06 0 .762-.19 1.676-.41 2.53l-2.404 9.11H36.79l2.468-9.268c.158-.535.253-1.297.253-1.834 0-2.15-1.39-3.415-3.668-3.415-2.53 0-5.06 2.182-5.917 5.282l-2.467 9.238h-2.432l6.2-23.094zM47.826 403.098c0 2.973 1.898 4.934 4.934 4.934 2.12 0 3.542-.727 5.03-1.93l1.266 1.617c-1.613 1.36-3.542 2.434-6.42 2.434-4.333 0-7.242-2.812-7.242-6.958 0-4.997 4.048-10.123 9.52-10.123 4.143 0 6.328 2.846 6.328 6.262 0 1.11-.22 2.15-.57 3.1h-12.81c-.036.22-.036.442-.036.663zm10.882-2.498c.095-.285.158-.696.158-1.265 0-2.245-1.265-4.206-4.083-4.206-3.226 0-5.693 2.466-6.578 5.47h10.503zM76.89 393.42h2.436l-.696 2.658c1.486-1.676 3.036-3.005 5.44-3.005 2.75 0 4.206 1.803 4.65 3.7 1.454-2.245 3.668-3.7 6.58-3.7 2.94 0 4.997 2.024 4.997 5.06 0 .762-.253 1.676-.443 2.53l-2.435 9.11h-2.436l2.498-9.268c.127-.535.22-1.297.22-1.834 0-2.118-1.264-3.415-3.383-3.415-2.405 0-4.84 2.245-5.662 5.282l-2.435 9.238h-2.435l2.467-9.27c.158-.534.253-1.296.253-1.833 0-2.12-1.297-3.416-3.416-3.416-2.404 0-4.84 2.245-5.66 5.282l-2.468 9.238H72.53l4.36-16.355zM103.583 402.816c0-5.092 4.396-9.744 9.617-9.744 4.49 0 7.464 3.068 7.464 7.306 0 5.218-4.523 9.773-9.646 9.773-4.493 0-7.435-3.1-7.435-7.334zm14.583-2.343c0-3.32-2.087-5.25-5.123-5.25-3.764 0-6.992 3.732-6.992 7.527 0 3.32 2.09 5.218 5.127 5.218 3.668 0 6.99-3.602 6.99-7.495zM122.024 407.273l1.58-1.58c1.772 1.707 3.733 2.403 5.694 2.403 1.866 0 3.605-1.075 3.605-2.72 0-1.075-.727-1.866-3.1-2.783-2.94-1.14-4.616-2.217-4.616-4.49 0-2.784 2.404-5.03 6.2-5.03 2.403 0 4.68 1.075 6.043 2.245l-1.423 1.676c-1.36-1.11-3.068-1.898-4.842-1.898-2.31 0-3.542 1.233-3.542 2.593 0 1.074.664 1.767 3.258 2.782 2.942 1.202 4.46 2.372 4.46 4.49 0 3.037-2.783 5.156-6.262 5.156-2.53.004-5.156-.948-7.054-2.845zM139.988 406.83c0-.566.095-1.202.22-1.708l2.563-9.55h-2.244l.57-2.152h2.276l1.328-4.937h2.404l-1.328 4.937h5.155l-.568 2.15h-5.155l-2.53 9.426c-.066.38-.13.854-.13 1.202 0 1.14.855 1.676 2.246 1.676.727 0 1.486-.158 2.372-.506l-.6 2.214c-.855.348-1.646.474-2.594.474-2.337 0-3.982-1.107-3.982-3.226zM164.654 393.42h2.435l-.697 2.658c1.486-1.676 3.194-3.005 5.693-3.005 3.163 0 5.218 1.96 5.218 5.06 0 .762-.19 1.676-.41 2.53l-2.405 9.11h-2.436l2.467-9.268c.16-.535.254-1.297.254-1.834 0-2.15-1.392-3.415-3.67-3.415-2.53 0-5.06 2.182-5.916 5.282l-2.467 9.238h-2.434l4.368-16.354zM183.092 403.098c0 2.973 1.898 4.934 4.934 4.934 2.12 0 3.542-.727 5.03-1.93l1.264 1.617c-1.613 1.36-3.542 2.434-6.42 2.434-4.333 0-7.245-2.812-7.245-6.958 0-4.997 4.048-10.123 9.522-10.123 4.143 0 6.328 2.846 6.328 6.262 0 1.11-.22 2.15-.57 3.1h-12.81c-.033.22-.033.442-.033.663zm10.88-2.498c.094-.285.157-.696.157-1.265 0-2.245-1.266-4.206-4.08-4.206-3.227 0-5.694 2.466-6.58 5.47h10.5zM197.355 412.048l1.518-1.708c1.74 1.486 3.953 2.464 6.452 2.464 2.056 0 3.605-.66 4.586-1.676 1.013-.98 1.582-2.243 2.057-3.922l.443-1.642c-1.645 1.676-3.574 2.938-6.262 2.938-3.416 0-6.644-2.243-6.644-6.167 0-5.443 4.586-9.27 9.172-9.27 3.51 0 5.092 1.962 6.01 3.923l.948-3.574h2.435l-3.733 14.01c-.696 2.533-1.486 3.988-2.657 5.158-1.518 1.515-3.542 2.31-6.325 2.31-3.003.006-5.975-1.07-8-2.844zm16.48-12.207c0-2.405-1.897-4.616-5.03-4.616-3.48 0-6.736 2.878-6.736 6.8 0 2.91 2.276 4.396 4.775 4.396 3.702 0 6.99-3.227 6.99-6.58zM219.21 405.597c0-3.67 3.067-5.917 7.273-5.917 2.182 0 4.238.443 5.82.888l.094-.38c.127-.474.22-1.078.22-1.518 0-2.12-1.454-3.32-4.427-3.32-1.74 0-3.163.347-4.617.853l-.41-2.024c1.615-.602 3.29-.98 5.407-.98 4.11 0 6.42 1.897 6.42 5.06 0 .695-.126 1.488-.348 2.244l-2.467 9.27h-2.372l.696-2.566c-1.52 1.74-3.512 2.913-6.108 2.913-2.747.002-5.183-1.614-5.183-4.523zm12.368-2.246l.316-1.138c-1.423-.414-3.29-.73-5.313-.73-2.91 0-4.9 1.584-4.9 3.83 0 1.737 1.36 2.91 3.478 2.91 2.75 0 5.63-1.993 6.42-4.87zM238.913 406.83c0-.566.095-1.202.22-1.708l2.563-9.55h-2.245l.57-2.152h2.277l1.328-4.937h2.404l-1.33 4.937h5.156l-.57 2.15h-5.154l-2.53 9.426c-.063.38-.127.854-.127 1.202 0 1.14.854 1.676 2.245 1.676.727 0 1.486-.158 2.372-.506l-.6 2.214c-.855.348-1.646.474-2.594.474-2.34 0-3.985-1.107-3.985-3.226zM254.346 393.42h2.435l-4.395 16.355h-2.435l4.396-16.354zm1.518-6.264h2.783l-.727 2.69h-2.783l.727-2.69zM260.324 393.42h2.562l1.834 13.572 9.045-13.57h2.75l-11.42 16.476h-2.15l-2.62-16.477zM278.762 403.098c0 2.973 1.898 4.934 4.937 4.934 2.115 0 3.538-.727 5.028-1.93l1.262 1.617c-1.613 1.36-3.54 2.434-6.417 2.434-4.336 0-7.245-2.812-7.245-6.958 0-4.997 4.048-10.123 9.522-10.123 4.14 0 6.325 2.846 6.325 6.262 0 1.11-.22 2.15-.57 3.1h-12.81c-.033.22-.033.442-.033.663zm10.882-2.498c.092-.285.158-.696.158-1.265 0-2.245-1.265-4.206-4.08-4.206-3.226 0-5.693 2.466-6.58 5.47h10.502zM302.732 407.273l1.584-1.58c1.77 1.707 3.732 2.403 5.696 2.403 1.863 0 3.605-1.075 3.605-2.72 0-1.075-.727-1.866-3.1-2.783-2.943-1.14-4.62-2.217-4.62-4.49 0-2.784 2.405-5.03 6.2-5.03 2.404 0 4.68 1.075 6.044 2.245l-1.422 1.676c-1.363-1.11-3.068-1.898-4.842-1.898-2.31 0-3.542 1.233-3.542 2.593 0 1.074.664 1.767 3.26 2.782 2.938 1.202 4.46 2.372 4.46 4.49 0 3.037-2.784 5.156-6.263 5.156-2.536.004-5.16-.948-7.058-2.845zM323.763 393.42h2.438l-4.395 16.355h-2.438l4.396-16.354zm1.518-6.264h2.784l-.727 2.69h-2.783l.727-2.69zM329.36 406.83c0-.566.096-1.202.222-1.708l2.565-9.55h-2.245l.566-2.152h2.28l1.328-4.937h2.404l-1.328 4.937h5.155l-.57 2.15h-5.154l-2.53 9.426c-.066.38-.127.854-.127 1.202 0 1.14.854 1.676 2.245 1.676.728 0 1.487-.158 2.37-.506l-.6 2.214c-.855.348-1.643.474-2.59.474-2.342 0-3.99-1.107-3.99-3.226zM343.277 403.098c0 2.973 1.898 4.934 4.937 4.934 2.116 0 3.54-.727 5.03-1.93l1.26 1.617c-1.61 1.36-3.538 2.434-6.416 2.434-4.336 0-7.245-2.812-7.245-6.958 0-4.997 4.048-10.123 9.522-10.123 4.14 0 6.325 2.846 6.325 6.262 0 1.11-.22 2.15-.57 3.1h-12.81c-.033.22-.033.442-.033.663zm10.882-2.498c.09-.285.157-.696.157-1.265 0-2.245-1.265-4.206-4.08-4.206-3.226 0-5.693 2.466-6.58 5.47h10.502zM372.59 393.42h2.44l-4.397 16.355h-2.438l4.396-16.354zm1.522-6.264h2.783l-.727 2.69h-2.783l.727-2.69zM380.69 393.42h2.44l-.697 2.658c1.486-1.676 3.194-3.005 5.693-3.005 3.163 0 5.215 1.96 5.215 5.06 0 .762-.186 1.676-.41 2.53l-2.404 9.11h-2.438l2.467-9.268c.158-.535.253-1.297.253-1.834 0-2.15-1.392-3.415-3.67-3.415-2.53 0-5.06 2.182-5.913 5.282l-2.467 9.238h-2.435l4.368-16.354zM407.067 406.83c0-.566.095-1.202.22-1.708l2.566-9.55h-2.245l.566-2.152h2.28l1.328-4.937h2.404l-1.328 4.937h5.155l-.57 2.15h-5.154l-2.53 9.426c-.064.38-.128.854-.128 1.202 0 1.14.854 1.676 2.245 1.676.727 0 1.486-.158 2.37-.506l-.602 2.214c-.854.348-1.642.474-2.59.474-2.344 0-3.988-1.107-3.988-3.226zM424.085 386.68h2.435l-2.53 9.397c1.486-1.676 3.194-3.004 5.693-3.004 3.163 0 5.215 1.96 5.215 5.06 0 .762-.187 1.676-.41 2.53l-2.405 9.11h-2.438l2.467-9.268c.158-.535.253-1.297.253-1.834 0-2.15-1.392-3.415-3.67-3.415-2.53 0-5.06 2.182-5.913 5.282l-2.467 9.238h-2.435l6.205-23.094zM440.686 403.098c0 2.973 1.898 4.934 4.937 4.934 2.116 0 3.542-.727 5.03-1.93l1.264 1.617c-1.613 1.36-3.542 2.434-6.42 2.434-4.336 0-7.245-2.812-7.245-6.958 0-4.997 4.048-10.123 9.522-10.123 4.143 0 6.325 2.846 6.325 6.262 0 1.11-.222 2.15-.57 3.1h-12.812c-.032.22-.032.442-.032.663zm10.882-2.498c.092-.285.158-.696.158-1.265 0-2.245-1.265-4.206-4.08-4.206-3.226 0-5.693 2.466-6.58 5.47h10.502zM467.882 393.42h2.467l.853 13.03 7.91-13.095h2.023l.917 13.096 7.875-13.03h2.53L482.27 409.9h-2.15l-.95-12.904-7.874 12.904h-2.12l-1.294-16.477zM492.74 402.816c0-5.092 4.396-9.744 9.617-9.744 4.49 0 7.464 3.068 7.464 7.306 0 5.218-4.522 9.773-9.645 9.773-4.49 0-7.435-3.1-7.435-7.334zm14.582-2.343c0-3.32-2.087-5.25-5.123-5.25-3.765 0-6.99 3.732-6.99 7.527 0 3.32 2.087 5.218 5.123 5.218 3.67 0 6.99-3.602 6.99-7.495zM516.27 393.42h2.438l-1.11 4.27c1.992-2.845 4.523-4.743 7.783-4.556l-.695 2.625h-.16c-3.575 0-7.15 2.624-8.445 7.56l-1.74 6.453h-2.434l4.364-16.352zM531.04 386.68h2.437l-6.2 23.09h-2.437l6.2-23.09zM534.012 403.225c0-5.79 4.396-10.152 9.172-10.152 3.352 0 5.25 1.898 6.138 4.048l2.783-10.44h2.438l-6.17 23.09h-2.438l.73-2.782c-1.55 1.768-3.542 3.163-6.167 3.163-3.7 0-6.486-2.782-6.486-6.925zm14.456-2.942c0-2.846-2.06-5.06-5.063-5.06-3.89 0-6.83 3.605-6.83 7.78 0 3.04 1.897 4.997 4.616 4.997 3.64 0 7.278-3.7 7.278-7.717z"/></g><path d="M608.64 426.96c6.877 21.396 7.462 48.698-11.993 46.594-38.553-4.17-4.273-39.135-10.84-60.63-5.354-17.522-28.2-17.977-14.066-16.85 13.57 1.086 30.02 9.49 36.9 30.886z" fill="#fff"/><circle cx="595.143" cy="458.324" r="17.031" fill="#fff"/></svg>