<?xml version="1.0" encoding="utf-8"?>
<!-- Generator: Adobe Illustrator 18.1.0, SVG Export Plug-In . SVG Version: 6.00 Build 0)  -->
<!DOCTYPE svg PUBLIC "-//W3C//DTD SVG 1.1//EN" "http://www.w3.org/Graphics/SVG/1.1/DTD/svg11.dtd">
<svg version="1.1" id="Layer_1" xmlns="http://www.w3.org/2000/svg" xmlns:xlink="http://www.w3.org/1999/xlink" x="0px" y="0px"
	 viewBox="0 0 500 500" enable-background="new 0 0 500 500" xml:space="preserve">
<path id="shiffle" fill="#020000" d="M344.5,333.1c-11.2-2.3-22.3-11.2-38-26.9c-13.4-11.2-24.6-29.2-38-44.9
	c-2.3,4.5-6.6,8.9-8.9,13.4c-8.9,11.2-18,24.6-26.9,35.8c31.4,38,64.9,76.1,112.1,82.9v44.9L470,366.6l-125.3-71.8L344.5,333.1
	L344.5,333.1z M136.2,187.5c13.4,11.2,24.6,29.2,38,44.9c2.3-4.5,6.6-8.9,8.9-13.4c8.9-11.2,18-22.3,26.9-35.8
	c-33.5-40.3-69.5-80.6-123.2-82.9H28.5v58.3h58.3C98.2,160.6,116,167.5,136.2,187.5z M344.5,160.6v42.6l125.3-71.8L344.5,59.7v44.9
	c-31.4,4.5-56,22.3-78.4,44.9c-35.8,35.8-67.2,85.2-100.7,125.3c-31.4,40.3-62.7,64.9-78.4,62.7H28.7v58.3H87
	c35.8,0,64.9-20.1,89.5-44.9c35.8-35.8,67.2-85.2,100.7-125.3C301.9,189.8,326.5,167.5,344.5,160.6z"/>
</svg>
