<?xml version="1.0" encoding="utf-8"?>
<!-- Generator: Adobe Illustrator 18.1.0, SVG Export Plug-In . SVG Version: 6.00 Build 0)  -->
<!DOCTYPE svg PUBLIC "-//W3C//DTD SVG 1.1//EN" "http://www.w3.org/Graphics/SVG/1.1/DTD/svg11.dtd">
<svg version="1.1" id="Layer_1" xmlns="http://www.w3.org/2000/svg" xmlns:xlink="http://www.w3.org/1999/xlink" x="0px" y="0px"
	 viewBox="0 0 500 500" enable-background="new 0 0 500 500" xml:space="preserve">
<path id="shiffle" fill="#FFFFFF" d="M295.3,289.7c-5.4-1.1-10.8-5.4-18.4-13c-6.5-5.4-11.9-14.1-18.4-21.7
	c-1.1,2.2-3.2,4.3-4.3,6.5c-4.3,5.4-8.7,11.9-13,17.3c15.2,18.4,31.4,36.8,54.2,40.1v21.7l60.6-34.7l-60.6-34.7L295.3,289.7
	L295.3,289.7z M194.6,219.3c6.5,5.4,11.9,14.1,18.4,21.7c1.1-2.2,3.2-4.3,4.3-6.5c4.3-5.4,8.7-10.8,13-17.3
	c-16.2-19.5-33.6-39-59.6-40.1h-28.2v28.2h28.2C176.2,206.3,184.8,209.6,194.6,219.3z M295.3,206.3v20.6l60.6-34.7l-60.6-34.7v21.7
	c-15.2,2.2-27.1,10.8-37.9,21.7c-17.3,17.3-32.5,41.2-48.7,60.6c-15.2,19.5-30.3,31.4-37.9,30.3h-28.2v28.2h28.2
	c17.3,0,31.4-9.7,43.3-21.7c17.3-17.3,32.5-41.2,48.7-60.6C274.7,220.4,286.6,209.6,295.3,206.3z"/>
</svg>
