<?xml version="1.0" encoding="utf-8"?>
<!-- Generator: Adobe Illustrator 18.1.0, SVG Export Plug-In . SVG Version: 6.00 Build 0)  -->
<!DOCTYPE svg PUBLIC "-//W3C//DTD SVG 1.1//EN" "http://www.w3.org/Graphics/SVG/1.1/DTD/svg11.dtd">
<svg version="1.1" id="Layer_1" xmlns="http://www.w3.org/2000/svg" xmlns:xlink="http://www.w3.org/1999/xlink" x="0px" y="0px"
	 viewBox="-227.7 236.8 22 18.8" enable-background="new -227.7 236.8 22 18.8" xml:space="preserve">
<path id="shiffle" d="M-212.1,249.7c-0.5-0.1-1-0.5-1.7-1.2c-0.6-0.5-1.1-1.3-1.7-2c-0.1,0.2-0.3,0.4-0.4,0.6
	c-0.4,0.5-0.8,1.1-1.2,1.6c1.4,1.7,2.9,3.4,5,3.7v2l5.6-3.2l-5.6-3.2V249.7z M-221.4,243.2c0.6,0.5,1.1,1.3,1.7,2
	c0.1-0.2,0.3-0.4,0.4-0.6c0.4-0.5,0.8-1,1.2-1.6c-1.5-1.8-3.1-3.6-5.5-3.7h-2.6v2.6h2.6C-223.1,242-222.3,242.3-221.4,243.2z
	 M-212.1,242v1.9l5.6-3.2l-5.6-3.2v2c-1.4,0.2-2.5,1-3.5,2c-1.6,1.6-3,3.8-4.5,5.6c-1.4,1.8-2.8,2.9-3.5,2.8h-2.6v2.6h2.6
	c1.6,0,2.9-0.9,4-2c1.6-1.6,3-3.8,4.5-5.6C-214,243.3-212.9,242.3-212.1,242z"/>
</svg>
