<?xml version="1.0" encoding="utf-8"?>
<!-- Generator: Adobe Illustrator 18.1.0, SVG Export Plug-In . SVG Version: 6.00 Build 0)  -->
<!DOCTYPE svg PUBLIC "-//W3C//DTD SVG 1.1//EN" "http://www.w3.org/Graphics/SVG/1.1/DTD/svg11.dtd">
<svg version="1.1" id="Layer_1" xmlns="http://www.w3.org/2000/svg" xmlns:xlink="http://www.w3.org/1999/xlink" x="0px" y="0px"
	 viewBox="0 50 657.8 692" enable-background="new 0 50 657.8 692" xml:space="preserve">
<path fill="#FFFFFF" d="M641.1,202.8c4.5-16.5,0-34.4-15-44.9c-7.5-6-16.5-9-26.9-9c-7.5,0-15,1.5-20.9,6
	c-13.5,7.5-26.9,13.5-41.9,18C508,151.9,473.6,140,439.2,140c-80.8,0-148.1,59.8-158.6,139.1c-64.3-13.5-124.2-49.4-166.1-101.7
	c-7.5-10.5-20.9-15-32.9-15h-3c-13.5,1.5-26.9,9-32.9,20.9c-15,23.9-22.4,52.4-22.4,80.8c0,19.5,3,37.4,9,55.4
	c-7.5,7.5-10.5,18-10.5,28.4c0,41.9,16.5,80.8,41.9,109.2c-1.5,7.5-1.5,15,1.5,22.4c9,28.4,25.4,53.9,47.9,71.8
	c-13.5,3-28.4,4.5-43.4,4.5c-7.5,0-15,0-22.4-1.5h-4.5c-18,0-34.4,10.5-40.4,28.4c-6,18,0,38.9,16.5,49.4
	C80.1,671.1,150.4,692,222.2,692c234.9,0,375.5-188.5,377-372.5c19.5-16.5,35.9-34.4,49.4-55.4c6-7.5,9-16.5,9-25.4
	C659.1,223.7,651.6,210.3,641.1,202.8L641.1,202.8z"/>
</svg>
