<svg xmlns="http://www.w3.org/2000/svg" viewBox="0 340.3 538.1 451.7" enable-background="new 0 340.3 538.1 451.7"><path fill="#fff" d="M524.5 391.8c3.7-13.5 0-28.2-12.2-36.7-6.1-4.9-13.5-7.3-22-7.3-6.1 0-12.2 1.2-17.1 4.9-11 6.1-22 11-34.3 14.7-23.3-17.1-51.4-26.9-79.6-26.9-66.1 0-121.2 49-129.7 113.8-52.6-11-101.6-40.4-135.9-83.2-6.1-8.6-17.1-12.2-26.9-12.2h-2.4c-11 1.2-22 7.3-26.9 17.1C25.1 395.4 19 418.7 19 441.9c0 15.9 2.4 30.6 7.3 45.3-6.1 6.1-8.6 14.7-8.6 23.3 0 34.3 13.5 66.1 34.3 89.4-1.2 6.1-1.2 12.2 1.2 18.4 7.3 23.3 20.8 44.1 39.2 58.8-11 2.4-23.3 3.7-35.5 3.7-6.1 0-12.2 0-18.4-1.2h-3.7c-14.7 0-28.2 8.6-33 23.3-4.9 14.7 0 31.8 13.5 40.4 50.2 31.8 107.7 49 166.5 49C374 792 489 637.8 490.2 487.2c15.9-13.5 29.4-28.2 40.4-45.3 4.9-6.1 7.3-13.5 7.3-20.8 1.3-12.2-4.8-23.2-13.4-29.3z"/></svg>