<?xml version="1.0" encoding="utf-8"?>
<!-- Generator: Adobe Illustrator 18.1.0, SVG Export Plug-In . SVG Version: 6.00 Build 0)  -->
<!DOCTYPE svg PUBLIC "-//W3C//DTD SVG 1.1//EN" "http://www.w3.org/Graphics/SVG/1.1/DTD/svg11.dtd">
<svg version="1.1" id="Layer_1" xmlns="http://www.w3.org/2000/svg" xmlns:xlink="http://www.w3.org/1999/xlink" x="0px" y="0px"
	 viewBox="0 0 500 500" enable-background="new 0 0 500 500" xml:space="preserve">
<path fill="#FFFFFF" d="M496.4,97.2c-18.1,8-37.6,13.5-58.1,15.9c20.9-12.5,36.9-32.3,44.5-55.9c-19.5,11.6-41.2,20-64.2,24.5
	c-18.4-19.6-44.7-31.9-73.8-31.9c-55.8,0-101.1,45.3-101.1,101.1c0,7.9,0.9,15.6,2.6,23c-84-4.2-158.5-44.5-208.4-105.6
	c-8.7,14.9-13.7,32.3-13.7,50.8c0,35.1,17.8,66,45,84.1c-16.6-0.5-32.2-5.1-45.8-12.6c0,0.4,0,0.8,0,1.3c0,49,34.8,89.8,81.1,99.1
	c-8.5,2.3-17.4,3.5-26.6,3.5c-6.5,0-12.8-0.6-19-1.8c12.9,40.2,50.2,69.4,94.4,70.2c-34.6,27.1-78.2,43.3-125.6,43.3
	c-8.2,0-16.2-0.5-24.1-1.4c44.7,28.7,97.9,45.4,155,45.4c186,0,287.6-154.1,287.6-287.7c0-4.4-0.1-8.7-0.3-13.1
	C465.7,135.3,482.8,117.4,496.4,97.2z"/>
</svg>
