<svg xmlns="http://www.w3.org/2000/svg" viewBox="0 0 500 419.8" enable-background="new 0 0 500 419.8"><path d="M487.4 47.7c3.4-12.5 0-26.2-11.3-34.1-5.7-4.6-12.5-6.8-20.4-6.8-5.7 0-11.3 1.1-15.9 4.6-10.3 5.6-20.5 10.2-32 13.6-21.7-15.9-47.8-25-74-25-61.4 0-112.6 45.5-120.5 105.7C164.4 95.5 118.9 68.2 87 28.4c-5.7-8-15.9-11.3-25-11.3h-2.2c-10.2 1.1-20.4 6.8-25 15.9-11.5 18-17.1 39.7-17.1 61.2 0 14.8 2.2 28.4 6.8 42.1-5.7 5.7-8 13.7-8 21.7 0 31.9 12.5 61.4 31.9 83.1-1.1 5.7-1.1 11.3 1.1 17.1 6.8 21.7 19.3 41 36.4 54.6-10.2 2.2-21.7 3.4-33 3.4-5.7 0-11.3 0-17.1-1.1h-3.4c-13.7 0-26.2 8-30.7 21.7-4.6 13.7 0 29.5 12.5 37.5 46.6 29.5 100.1 45.5 154.7 45.5 178.6-.3 285.4-143.6 286.6-283.5 14.8-12.5 27.3-26.2 37.5-42.1 4.6-5.7 6.8-12.5 6.8-19.3 1.2-11.3-4.4-21.6-12.4-27.2z"/></svg>