<?xml version="1.0" encoding="iso-8859-1"?>
<!-- Generator: Adobe Illustrator 18.0.0, SVG Export Plug-In . SVG Version: 6.00 Build 0)  -->
<!DOCTYPE svg PUBLIC "-//W3C//DTD SVG 1.1//EN" "http://www.w3.org/Graphics/SVG/1.1/DTD/svg11.dtd">
<svg version="1.1" xmlns="http://www.w3.org/2000/svg" xmlns:xlink="http://www.w3.org/1999/xlink" x="0px" y="0px"
	 viewBox="0 0 360 360" style="enable-background:new 0 0 360 360;" xml:space="preserve">
<g id="Layer_1" style="display:none;">
	<g style="display:inline;">
		<g>
			<path style="fill-rule:evenodd;clip-rule:evenodd;fill:#FFFFFF;" d="M216.319,93.104c-27.402,0-54.804,0.034-82.206-0.019
				c-9.24-0.018-16.089-4.253-19.914-12.654c-6.241-13.709,3.431-29.143,18.523-29.884c0.695-0.034,1.393-0.041,2.089-0.041
				c54.433-0.002,108.865,0.008,163.297-0.011c8.845-0.003,15.67,3.571,19.927,11.375c7.4,13.568-2.271,30.507-17.699,31.194
				c-0.742,0.033-1.485,0.038-2.229,0.039C270.845,93.104,243.582,93.104,216.319,93.104z"/>
			<path style="fill-rule:evenodd;clip-rule:evenodd;fill:#FFFFFF;" d="M216.46,156.005c27.449,0.001,54.898-0.041,82.348,0.023
				c9.304,0.021,16.102,4.371,19.94,12.835c5.817,12.831-2.926,27.98-16.89,29.544c-1.013,0.114-2.034,0.204-3.052,0.204
				c-54.945,0.01-109.89,0.011-164.834,0.007c-10.605-0.001-19.294-7.136-21.288-17.449c-2.462-12.73,7.357-24.981,20.315-25.122
				c12.167-0.132,24.336-0.04,36.505-0.042C185.156,156.003,200.808,156.005,216.46,156.005z"/>
			<path style="fill-rule:evenodd;clip-rule:evenodd;fill:#FFFFFF;" d="M216.363,304.565c-27.496,0-54.991,0.005-82.486-0.003
				c-10.648-0.003-19.293-7.195-21.248-17.643c-2.218-11.854,6.562-23.59,18.527-24.753c1.061-0.103,2.129-0.191,3.193-0.191
				c54.712-0.009,109.424-0.02,164.136,0.005c9.146,0.004,16.028,4.03,20.008,12.321c6.216,12.949-2.209,28.178-16.453,30.069
				c-1.158,0.154-2.311,0.193-3.47,0.193C271.168,304.566,243.765,304.566,216.363,304.565z"/>
			<path style="fill-rule:evenodd;clip-rule:evenodd;fill:#FFFFFF;" d="M62.173,210.658c-17.982,0.226-33.36-14.966-33.038-33.652
				c0.304-17.593,15.082-32.845,33.868-32.437c17.646,0.383,32.703,15.268,32.264,33.895
				C94.85,196.133,80.079,210.876,62.173,210.658z M62.239,147.908c-16.321-0.186-29.759,13.431-29.797,29.655
				c-0.038,16.215,13.333,29.773,29.66,29.829c16.398,0.056,29.868-13.507,29.866-29.761
				C91.966,161.376,78.525,147.754,62.239,147.908z"/>
			<path style="fill-rule:evenodd;clip-rule:evenodd;fill:#FFFFFF;" d="M62.097,316.559c-17.944,0.184-33.25-14.977-32.963-33.588
				c0.272-17.632,15.064-32.874,33.805-32.502c17.652,0.351,32.807,15.24,32.325,33.973
				C94.811,302.09,80.028,316.816,62.097,316.559z M32.482,283.447c-0.23,16.221,13.286,29.782,29.603,29.845
				c16.405,0.064,29.803-13.485,29.883-29.603c0.081-16.282-13.356-29.892-29.712-29.917
				C45.932,253.746,32.345,267.229,32.482,283.447z"/>
			<path style="fill-rule:evenodd;clip-rule:evenodd;fill:#FFFFFF;" d="M95.231,71.81c0.19,18.05-15.083,33.341-33.7,32.992
				c-17.561-0.329-32.825-15.119-32.391-33.919c0.403-17.464,15.126-32.671,33.945-32.209C80.766,39.107,95.465,53.893,95.231,71.81
				z M91.926,71.825c0.239-16.278-13.348-29.79-29.591-29.856c-16.338-0.067-29.804,13.409-29.893,29.597
				c-0.089,16.218,13.272,29.892,29.704,29.924C78.544,101.523,92.071,87.961,91.926,71.825z"/>
			<path style="fill-rule:evenodd;clip-rule:evenodd;fill:#FFFFFF;" d="M62.498,198.951c-4.039,0-8.078-0.035-12.116,0.023
				c-1.099,0.016-1.447-0.307-1.438-1.421c0.049-5.71,0.029-11.42,0.015-17.13c-0.002-0.672,0.05-1.322,0.524-1.814
				c1.222-1.27,2.466-2.52,3.729-3.749c0.46-0.448,1.082-0.444,1.698-0.442c3.388,0.014,6.777,0.011,10.166,0.004
				c1.372-0.002,1.995-0.629,2.006-2.016c0.013-1.578,0.004-3.157,0.003-4.735c-0.002-1.82-0.868-2.699-2.664-2.701
				c-1.81-0.003-3.622,0.035-5.431-0.017c-0.749-0.021-0.911,0.239-0.931,0.947c-0.095,3.25-0.118,3.25-3.4,3.25
				c-1.485,0-2.972-0.029-4.457,0.009c-0.863,0.022-1.275-0.241-1.251-1.187c0.051-1.995,0.014-3.992,0.018-5.988
				c0-0.231-0.005-0.471,0.053-0.691c0.476-1.806,4.939-5.226,6.812-5.23c4.55-0.011,9.099-0.006,13.648-0.041
				c1.28-0.01,2.314,0.394,3.207,1.329c4.078,4.272,3.483,2.425,3.524,8.554c0.024,3.667-0.019,7.335,0.017,11.002
				c0.012,1.242-0.526,2.107-1.272,3.08c-2.151,2.801-4.826,3.851-8.314,3.421c-2.012-0.248-4.08-0.052-6.122-0.043
				c-1.579,0.006-2.469,0.877-2.431,2.477c0.032,1.369-0.6,3.202,0.268,3.974c0.761,0.677,2.558,0.209,3.897,0.213
				c4.132,0.01,8.264,0.038,12.394-0.019c1.165-0.016,1.591,0.422,1.575,1.531c-0.029,1.996-0.032,3.992,0.002,5.988
				c0.018,1.051-0.358,1.461-1.473,1.445C70.669,198.916,66.583,198.951,62.498,198.951z"/>
			<path style="fill-rule:evenodd;clip-rule:evenodd;fill:#FFFFFF;" d="M62.585,305.15c-2.415,0-4.829,0-7.245,0
				c-0.232,0-0.466,0.022-0.696,0.003c-1.277-0.101-5.363-4.27-5.387-5.562c-0.04-2.043,0.006-4.087-0.02-6.131
				c-0.01-0.832,0.334-1.167,1.165-1.158c2.275,0.025,4.552,0.041,6.827-0.005c1.026-0.022,1.095,0.596,1.13,1.345
				c0.12,2.571,0.125,2.57,2.73,2.57c1.347,0,2.694,0,4.041,0c1.125,0.001,1.712-0.605,1.748-1.685
				c0.046-1.392,0.032-2.786,0.005-4.179c-0.022-1.182-1.006-2.169-2.194-2.19c-1.578-0.029-3.158-0.029-4.737,0.003
				c-0.65,0.013-0.996-0.06-0.975-0.876c0.062-2.414,0.047-4.83,0.006-7.244c-0.012-0.685,0.208-0.859,0.864-0.843
				c1.717,0.042,3.437,0.001,5.155,0.019c1.266,0.014,1.86-0.637,1.882-1.851c0.022-1.253,0.014-2.508,0.003-3.762
				c-0.014-1.561-0.911-2.443-2.496-2.452c-1.672-0.009-3.345,0.031-5.016-0.017c-0.751-0.022-1.031,0.151-1.043,0.978
				c-0.045,2.939-0.081,2.939-2.995,2.938c-1.625,0-3.251-0.021-4.876,0.007c-0.89,0.014-1.244-0.357-1.227-1.253
				c0.038-1.996,0.022-3.993,0.005-5.99c-0.004-0.539,0.124-1.043,0.474-1.41c1.249-1.308,2.537-2.58,3.819-3.855
				c0.359-0.357,0.835-0.341,1.306-0.341c5.201,0.006,10.403,0.004,15.604,0.004c0.139,0,0.281-0.012,0.417,0.006
				c1.312,0.176,5.13,4.445,5.134,5.779c0.012,3.947-0.044,7.897,0.029,11.842c0.028,1.51-0.998,2.261-1.899,3.054
				c-1.034,0.911-1.161,1.599,0.008,2.425c1.587,1.122,2.001,2.664,1.906,4.581c-0.151,3.058-0.047,6.128-0.035,9.193
				c0.002,0.612,0.023,1.238-0.421,1.704c-1.281,1.342-2.583,2.664-3.903,3.968c-0.422,0.417-1.004,0.396-1.572,0.393
				C67.602,305.143,65.094,305.15,62.585,305.15z"/>
			<path style="fill-rule:evenodd;clip-rule:evenodd;fill:#FFFFFF;" d="M67.082,72.063c0,6.587-0.023,13.176,0.022,19.763
				c0.008,1.149-0.316,1.573-1.5,1.525c-2.038-0.083-4.084-0.088-6.122,0.002c-1.139,0.05-1.451-0.389-1.442-1.44
				c0.033-4.129,0.013-8.258,0.013-12.387c0-6.171-0.021-12.341,0.021-18.511c0.007-0.971-0.255-1.265-1.234-1.239
				c-2.554,0.067-3.612,0.43-2.035-2.94c0.759-1.623,1.374-3.315,2.023-4.988c0.321-0.826,0.79-1.218,1.758-1.186
				c2.317,0.078,4.641,0.087,6.957,0c1.275-0.048,1.566,0.464,1.559,1.635C67.06,58.887,67.082,65.475,67.082,72.063z"/>
		</g>
	</g>
</g>
<g id="Layer_2">
	<g>
		
			<circle style="fill-rule:evenodd;clip-rule:evenodd;fill:#FFFFFF;stroke:#FFFFFF;stroke-width:16;stroke-miterlimit:10;" cx="144.235" cy="145.966" r="92"/>
		<path style="fill-rule:evenodd;clip-rule:evenodd;fill:#FFFFFF;stroke:#FFFFFF;stroke-miterlimit:10;" d="M301.946,282.722
			c4.686,4.685,4.686,12.284,0,16.97l-2.828,2.829c-4.687,4.686-12.284,4.686-16.971,0l-78.489-78.489
			c-4.685-4.686-4.685-12.284,0-16.971l2.829-2.828c4.687-4.687,12.284-4.686,16.971,0L301.946,282.722z"/>
	</g>
</g>
</svg>
