<?xml version="1.0" encoding="utf-8"?>
<!-- Generator: Adobe Illustrator 18.1.0, SVG Export Plug-In . SVG Version: 6.00 Build 0)  -->
<!DOCTYPE svg PUBLIC "-//W3C//DTD SVG 1.1//EN" "http://www.w3.org/Graphics/SVG/1.1/DTD/svg11.dtd">
<svg version="1.1" id="Layer_1" xmlns="http://www.w3.org/2000/svg" xmlns:xlink="http://www.w3.org/1999/xlink" x="0px" y="0px"
	 viewBox="134.8 186.5 231.4 127.2" enable-background="new 134.8 186.5 231.4 127.2" xml:space="preserve">
<g id="Layer_2" display="none">
	<rect x="-192.5" y="136.2" display="inline" fill="#020202" width="824.9" height="824.9"/>
</g>
<g>
	<g>
		<path fill="#FFFFFF" d="M161.6,308.5c0,0,0.4-0.6,1.2-1.7c0.4-0.5,0.9-1.2,1.5-2c0.3-0.4,0.6-0.8,1-1.3c0.4-0.4,0.8-0.9,1.2-1.4
			c0.8-1,1.8-2.1,2.9-3.2c1.1-1.1,2.3-2.3,3.6-3.6c1.3-1.3,2.8-2.5,4.3-3.8c1.5-1.3,3.3-2.6,5.1-4c1.8-1.3,3.8-2.6,5.8-3.9
			c1-0.6,2.1-1.2,3.2-1.9c0.5-0.3,1.1-0.6,1.6-1c0.6-0.3,1.1-0.6,1.7-0.9c1.1-0.6,2.3-1.2,3.5-1.8c1.2-0.6,2.4-1.1,3.7-1.7
			c0.6-0.3,1.2-0.6,1.9-0.8c0.6-0.3,1.3-0.5,1.9-0.7c1.3-0.5,2.6-1,4-1.5c1.3-0.4,2.7-0.9,4.1-1.3c0.7-0.2,1.4-0.4,2.1-0.6
			c0.7-0.2,1.4-0.4,2.1-0.5c1.4-0.3,2.8-0.7,4.3-1c1.5-0.3,2.9-0.5,4.4-0.8c5.9-1,12-1.6,18.1-1.5l1.1,0l0.3,0l0.4,0l0.5,0l2.2,0.1
			c1.5,0.1,2.8,0.1,4.4,0.3c1.6,0.1,3.1,0.3,4.6,0.5c1.5,0.2,3,0.5,4.5,0.7c1.5,0.2,2.9,0.5,4.4,0.8c1.4,0.3,2.9,0.6,4.3,1
			c1.4,0.4,2.8,0.8,4.2,1.1c1.4,0.4,2.7,0.9,4.1,1.4c1.4,0.4,2.7,0.9,4,1.5c1.3,0.5,2.6,1,3.8,1.6c2.5,1.2,4.9,2.2,7.2,3.5
			c4.6,2.4,8.7,5.1,12.3,7.7c1.8,1.4,3.5,2.7,5.1,4c1.5,1.4,3,2.6,4.3,3.8c1.3,1.3,2.5,2.5,3.6,3.6c1.1,1.1,2,2.2,2.9,3.2
			c1.7,1.9,2.9,3.6,3.7,4.7c0.8,1.1,1.2,1.7,1.2,1.7s-0.6-0.4-1.8-1.2c-1.1-0.8-2.8-1.9-4.9-3.3c-1.1-0.7-2.2-1.5-3.5-2.2
			c-1.3-0.8-2.7-1.6-4.2-2.5c-1.5-0.8-3.1-1.7-4.8-2.6c-1.7-0.9-3.5-1.8-5.4-2.7c-1.9-0.8-3.9-1.9-6-2.7c-1.1-0.4-2.1-0.9-3.2-1.3
			c-1.1-0.4-2.2-0.8-3.3-1.2c-2.2-0.9-4.6-1.6-6.9-2.4c-1.2-0.4-2.4-0.7-3.6-1c-1.2-0.4-2.4-0.7-3.7-1c-5-1.3-10.2-2.2-15.6-2.9
			c-1.3-0.2-2.7-0.3-4-0.5c-1.3-0.1-2.6-0.2-3.9-0.3c-1.3-0.1-2.8-0.1-4.2-0.2l-2.2-0.1l-0.5,0l-0.1,0c0.3,0,0,0,0.1,0l-0.1,0
			l-0.3,0l-1,0l-4.1,0c-1.4,0.1-2.7,0.2-4.1,0.2c-1.4,0.1-2.7,0.2-4.1,0.3c-1.3,0.1-2.7,0.2-4,0.4c-5.3,0.7-10.5,1.7-15.6,2.9
			c-2.5,0.7-5,1.3-7.3,2.1c-1.2,0.4-2.4,0.7-3.5,1.1c-1.1,0.4-2.3,0.8-3.4,1.2c-0.6,0.2-1.1,0.4-1.7,0.6c-0.5,0.2-1.1,0.4-1.6,0.7
			c-1.1,0.4-2.1,0.9-3.2,1.3c-2.1,0.9-4.1,1.8-6,2.7c-1.9,0.9-3.7,1.8-5.4,2.7c-1.7,0.9-3.3,1.8-4.8,2.6c-1.5,0.9-2.9,1.7-4.2,2.5
			c-1.3,0.8-2.4,1.6-3.5,2.2c-2.1,1.3-3.8,2.5-4.9,3.3C162.2,308.1,161.6,308.5,161.6,308.5z"/>
	</g>
	<g>
		<path fill="#FFFFFF" d="M180.6,240.8v0.2c-0.1,0.3-0.2,0.5-0.4,0.6c0,0-0.1,0-0.1,0c0,0,0,0-0.1,0l-0.1,0.1h-0.1l-0.1,0.1h-9
			c-0.5,0-0.9-0.3-1-1l-5-18.1l-0.5-3.6l-0.4,3.6l-5.6,18.1c-0.2,0.7-0.6,1-1.1,1h-9c0,0-0.1,0-0.1,0c0,0,0,0-0.1,0c0,0-0.1,0-0.1,0
			c0,0-0.1,0-0.1,0c0,0-0.1,0-0.1-0.1c-0.3-0.1-0.4-0.4-0.4-0.6c0,0-0.1,0-0.1-0.1v-0.1l-3.8-48.1c0-0.2,0.1-0.5,0.3-0.7
			c0.2-0.2,0.4-0.3,0.7-0.3h8.5c0.3,0,0.5,0.1,0.8,0.3s0.3,0.4,0.3,0.7l1.7,24.5l4.1-11.2c0.1-0.2,0.3-0.5,0.5-0.7
			c0.2-0.2,0.5-0.3,0.8-0.3h5.8c0.3,0,0.6,0.1,0.8,0.3c0.2,0.2,0.4,0.4,0.6,0.7l4,11.2l1.8-24.5c0-0.2,0.1-0.5,0.3-0.7
			c0.2-0.2,0.4-0.3,0.7-0.3h8.6c0.2,0,0.5,0.1,0.7,0.3c0.2,0.2,0.3,0.4,0.3,0.7L180.6,240.8z"/>
		<path fill="#FFFFFF" d="M229.1,192.6v48.3c0,0.7-0.3,1-1,1h-8.6c-0.2,0-0.5-0.1-0.7-0.3c-0.2-0.2-0.3-0.4-0.3-0.7V222h-10.8v18.9
			c0,0.3-0.1,0.5-0.3,0.7c-0.2,0.2-0.4,0.3-0.7,0.3h-8.6c-0.7,0-1-0.3-1-1v-48.3c0-0.7,0.3-1,1-1h8.6c0.2,0,0.5,0.1,0.7,0.3
			c0.2,0.2,0.3,0.4,0.3,0.7v18.9h10.8v-18.9c0-0.3,0.1-0.5,0.3-0.7c0.2-0.2,0.4-0.3,0.7-0.3h8.6
			C228.8,191.6,229.1,191.9,229.1,192.6z"/>
		<path fill="#FFFFFF" d="M253.1,192.8v48.1c0,0.7-0.3,1-1,1h-8.6c-0.7,0-1-0.3-1-1v-48.1c0-0.7,0.3-1,1-1h8.6
			C252.7,191.8,253.1,192.1,253.1,192.8z"/>
		<path fill="#FFFFFF" d="M299.3,192.5v48.3c0,0.2-0.1,0.5-0.3,0.7c-0.2,0.2-0.4,0.3-0.7,0.3h-11.4c-0.3,0-0.6-0.1-0.8-0.3
			c-0.2-0.2-0.4-0.4-0.5-0.7l-8.8-24v24c0,0.2-0.1,0.5-0.3,0.7s-0.4,0.3-0.7,0.3h-8.6c-0.3,0-0.5-0.1-0.7-0.3
			c-0.2-0.2-0.3-0.4-0.3-0.7v-48.3c0-0.7,0.3-1,1-1H278c0.5,0,0.9,0.3,1,1h0.1l9.5,27.8l0.1,0.8v-28.6c0-0.3,0.1-0.5,0.3-0.7
			c0.2-0.2,0.4-0.3,0.7-0.3h8.6C299,191.5,299.3,191.8,299.3,192.5z"/>
		<path fill="#FFFFFF" d="M323.7,211.4h12.7c0.7,0,1,0.3,1,1v8.6c0,0.7-0.3,1-1,1h-12.7v9.3h16.6c0.2,0,0.5,0.1,0.7,0.3
			c0.2,0.2,0.3,0.4,0.3,0.7v8.6c0,0.3-0.1,0.5-0.3,0.7c-0.2,0.2-0.4,0.3-0.7,0.3h-26.2c-0.7,0-1-0.3-1-1v-48.3c0-0.7,0.3-1,1-1h26.2
			c0.2,0,0.5,0.1,0.7,0.3c0.2,0.2,0.3,0.4,0.3,0.7v8.6c0,0.3-0.1,0.5-0.3,0.7c-0.2,0.2-0.4,0.3-0.7,0.3h-16.6V211.4z"/>
	</g>
	<g>
		<path fill="#FCFCFC" d="M149.3,249h-2.7l0.2-0.8h6.2l-0.2,0.8h-2.7l-1.9,7.1h-0.9L149.3,249z"/>
		<path fill="#FCFCFC" d="M154.4,247.9h0.9l-0.9,3.4c0.5-0.6,1.1-1.1,2-1.1c1.1,0,1.9,0.7,1.9,1.8c0,0.3-0.1,0.6-0.1,0.9l-0.9,3.3
			h-0.9l0.9-3.3c0.1-0.2,0.1-0.5,0.1-0.7c0-0.8-0.5-1.2-1.3-1.2c-0.9,0-1.8,0.8-2.1,1.9l-0.9,3.3h-0.9L154.4,247.9z"/>
		<path fill="#FCFCFC" d="M160.3,253.7c0,1.1,0.7,1.8,1.8,1.8c0.8,0,1.3-0.3,1.8-0.7l0.5,0.6c-0.6,0.5-1.3,0.9-2.3,0.9
			c-1.5,0-2.6-1-2.6-2.5c0-1.8,1.4-3.6,3.4-3.6c1.5,0,2.3,1,2.3,2.2c0,0.4-0.1,0.8-0.2,1.1h-4.6
			C160.3,253.6,160.3,253.7,160.3,253.7z M164.2,252.9c0-0.1,0.1-0.2,0.1-0.5c0-0.8-0.5-1.5-1.5-1.5c-1.2,0-2,0.9-2.3,2L164.2,252.9
			L164.2,252.9z"/>
		<path fill="#FCFCFC" d="M170.7,250.3h0.9l-0.2,0.9c0.5-0.6,1.1-1.1,1.9-1.1c1,0,1.5,0.6,1.7,1.3c0.5-0.8,1.3-1.3,2.4-1.3
			c1.1,0,1.8,0.7,1.8,1.8c0,0.3-0.1,0.6-0.2,0.9l-0.9,3.3h-0.9l0.9-3.3c0-0.2,0.1-0.5,0.1-0.7c0-0.8-0.5-1.2-1.2-1.2
			c-0.9,0-1.7,0.8-2,1.9l-0.9,3.3h-0.9l0.9-3.3c0.1-0.2,0.1-0.5,0.1-0.7c0-0.8-0.5-1.2-1.2-1.2c-0.9,0-1.7,0.8-2,1.9l-0.9,3.3h-0.9
			L170.7,250.3z"/>
		<path fill="#FCFCFC" d="M180.3,253.6c0-1.8,1.6-3.5,3.4-3.5c1.6,0,2.7,1.1,2.7,2.6c0,1.9-1.6,3.5-3.4,3.5
			C181.3,256.3,180.3,255.2,180.3,253.6z M185.5,252.8c0-1.2-0.7-1.9-1.8-1.9c-1.3,0-2.5,1.3-2.5,2.7c0,1.2,0.7,1.9,1.8,1.9
			C184.3,255.5,185.5,254.2,185.5,252.8z"/>
		<path fill="#FCFCFC" d="M186.8,255.2l0.6-0.6c0.6,0.6,1.3,0.9,2,0.9c0.7,0,1.3-0.4,1.3-1c0-0.4-0.3-0.7-1.1-1
			c-1.1-0.4-1.6-0.8-1.6-1.6c0-1,0.9-1.8,2.2-1.8c0.9,0,1.7,0.4,2.2,0.8l-0.5,0.6c-0.5-0.4-1.1-0.7-1.7-0.7c-0.8,0-1.3,0.4-1.3,0.9
			c0,0.4,0.2,0.6,1.2,1c1.1,0.4,1.6,0.8,1.6,1.6c0,1.1-1,1.8-2.2,1.8C188.5,256.3,187.5,255.9,186.8,255.2z"/>
		<path fill="#FCFCFC" d="M193.3,255.1c0-0.2,0-0.4,0.1-0.6l0.9-3.4h-0.8l0.2-0.8h0.8l0.5-1.8h0.9l-0.5,1.8h1.8l-0.2,0.8h-1.8
			l-0.9,3.4c0,0.1,0,0.3,0,0.4c0,0.4,0.3,0.6,0.8,0.6c0.3,0,0.5-0.1,0.8-0.2l-0.2,0.8c-0.3,0.1-0.6,0.2-0.9,0.2
			C193.8,256.2,193.3,255.8,193.3,255.1z"/>
		<path fill="#FCFCFC" d="M202.1,250.3h0.9l-0.2,0.9c0.5-0.6,1.1-1.1,2-1.1c1.1,0,1.9,0.7,1.9,1.8c0,0.3-0.1,0.6-0.1,0.9l-0.9,3.3
			h-0.9l0.9-3.3c0.1-0.2,0.1-0.5,0.1-0.7c0-0.8-0.5-1.2-1.3-1.2c-0.9,0-1.8,0.8-2.1,1.9l-0.9,3.3h-0.9L202.1,250.3z"/>
		<path fill="#FCFCFC" d="M208.7,253.7c0,1.1,0.7,1.8,1.8,1.8c0.8,0,1.3-0.3,1.8-0.7l0.5,0.6c-0.6,0.5-1.3,0.9-2.3,0.9
			c-1.5,0-2.6-1-2.6-2.5c0-1.8,1.4-3.6,3.4-3.6c1.5,0,2.3,1,2.3,2.2c0,0.4-0.1,0.8-0.2,1.1h-4.6
			C208.7,253.6,208.7,253.7,208.7,253.7z M212.5,252.9c0-0.1,0.1-0.2,0.1-0.5c0-0.8-0.5-1.5-1.5-1.5c-1.2,0-2,0.9-2.4,2L212.5,252.9
			L212.5,252.9z"/>
		<path fill="#FCFCFC" d="M213.8,256.9l0.5-0.6c0.6,0.5,1.4,0.9,2.3,0.9c0.7,0,1.3-0.2,1.6-0.6c0.4-0.4,0.6-0.8,0.7-1.4l0.2-0.6
			c-0.6,0.6-1.3,1-2.2,1c-1.2,0-2.4-0.8-2.4-2.2c0-1.9,1.6-3.3,3.3-3.3c1.3,0,1.8,0.7,2.1,1.4l0.3-1.3h0.9l-1.3,5
			c-0.2,0.9-0.5,1.4-0.9,1.8c-0.5,0.5-1.3,0.8-2.3,0.8C215.5,258,214.5,257.6,213.8,256.9z M219.6,252.6c0-0.9-0.7-1.6-1.8-1.6
			c-1.2,0-2.4,1-2.4,2.4c0,1,0.8,1.6,1.7,1.6C218.5,254.9,219.6,253.8,219.6,252.6z"/>
		<path fill="#FCFCFC" d="M221.6,254.6c0-1.3,1.1-2.1,2.6-2.1c0.8,0,1.5,0.2,2.1,0.3l0-0.1c0-0.2,0.1-0.4,0.1-0.5
			c0-0.8-0.5-1.2-1.6-1.2c-0.6,0-1.1,0.1-1.6,0.3l-0.1-0.7c0.6-0.2,1.2-0.4,1.9-0.4c1.5,0,2.3,0.7,2.3,1.8c0,0.2,0,0.5-0.1,0.8
			l-0.9,3.3h-0.8l0.2-0.9c-0.5,0.6-1.3,1-2.2,1C222.4,256.3,221.6,255.7,221.6,254.6z M226,253.8l0.1-0.4c-0.5-0.1-1.2-0.3-1.9-0.3
			c-1,0-1.8,0.6-1.8,1.4c0,0.6,0.5,1,1.2,1C224.7,255.6,225.7,254.9,226,253.8z"/>
		<path fill="#FCFCFC" d="M228.6,255.1c0-0.2,0-0.4,0.1-0.6l0.9-3.4h-0.8l0.2-0.8h0.8l0.5-1.8h0.9l-0.5,1.8h1.8l-0.2,0.8h-1.8
			l-0.9,3.4c0,0.1,0,0.3,0,0.4c0,0.4,0.3,0.6,0.8,0.6c0.3,0,0.5-0.1,0.8-0.2l-0.2,0.8c-0.3,0.1-0.6,0.2-0.9,0.2
			C229.2,256.2,228.6,255.8,228.6,255.1z"/>
		<path fill="#FCFCFC" d="M234.1,250.3h0.9l-1.6,5.8h-0.9L234.1,250.3z M234.7,248.1h1l-0.3,1h-1L234.7,248.1z"/>
		<path fill="#FCFCFC" d="M236.2,250.3h0.9l0.7,4.8l3.2-4.8h1l-4.1,5.9h-0.8L236.2,250.3z"/>
		<path fill="#FCFCFC" d="M242.8,253.7c0,1.1,0.7,1.8,1.8,1.8c0.8,0,1.3-0.3,1.8-0.7l0.5,0.6c-0.6,0.5-1.3,0.9-2.3,0.9
			c-1.5,0-2.6-1-2.6-2.5c0-1.8,1.4-3.6,3.4-3.6c1.5,0,2.3,1,2.3,2.2c0,0.4-0.1,0.8-0.2,1.1h-4.6
			C242.8,253.6,242.8,253.7,242.8,253.7z M246.7,252.9c0-0.1,0.1-0.2,0.1-0.5c0-0.8-0.5-1.5-1.5-1.5c-1.2,0-2,0.9-2.4,2L246.7,252.9
			L246.7,252.9z"/>
		<path fill="#FCFCFC" d="M251.4,255.2l0.6-0.6c0.6,0.6,1.3,0.9,2,0.9c0.7,0,1.3-0.4,1.3-1c0-0.4-0.3-0.7-1.1-1
			c-1.1-0.4-1.6-0.8-1.6-1.6c0-1,0.9-1.8,2.2-1.8c0.9,0,1.7,0.4,2.2,0.8l-0.5,0.6c-0.5-0.4-1.1-0.7-1.7-0.7c-0.8,0-1.3,0.4-1.3,0.9
			c0,0.4,0.2,0.6,1.2,1c1.1,0.4,1.6,0.8,1.6,1.6c0,1.1-1,1.8-2.2,1.8C253,256.3,252.1,255.9,251.4,255.2z"/>
		<path fill="#FCFCFC" d="M258.9,250.3h0.9l-1.6,5.8h-0.9L258.9,250.3z M259.4,248.1h1l-0.3,1h-1L259.4,248.1z"/>
		<path fill="#FCFCFC" d="M260.9,255.1c0-0.2,0-0.4,0.1-0.6l0.9-3.4h-0.8l0.2-0.8h0.8l0.5-1.8h0.9l-0.5,1.8h1.8l-0.2,0.8h-1.8
			l-0.9,3.4c0,0.1,0,0.3,0,0.4c0,0.4,0.3,0.6,0.8,0.6c0.3,0,0.5-0.1,0.8-0.2l-0.2,0.8c-0.3,0.1-0.6,0.2-0.9,0.2
			C261.5,256.2,260.9,255.8,260.9,255.1z"/>
		<path fill="#FCFCFC" d="M265.9,253.7c0,1.1,0.7,1.8,1.8,1.8c0.8,0,1.3-0.3,1.8-0.7l0.5,0.6c-0.6,0.5-1.3,0.9-2.3,0.9
			c-1.5,0-2.6-1-2.6-2.5c0-1.8,1.4-3.6,3.4-3.6c1.5,0,2.3,1,2.3,2.2c0,0.4-0.1,0.8-0.2,1.1h-4.6
			C265.9,253.6,265.9,253.7,265.9,253.7z M269.8,252.9c0-0.1,0.1-0.2,0.1-0.5c0-0.8-0.5-1.5-1.5-1.5c-1.2,0-2,0.9-2.4,2L269.8,252.9
			L269.8,252.9z"/>
		<path fill="#FCFCFC" d="M276.3,250.3h0.9l-1.6,5.8h-0.9L276.3,250.3z M276.9,248.1h1l-0.3,1h-1L276.9,248.1z"/>
		<path fill="#FCFCFC" d="M279.2,250.3h0.9l-0.2,0.9c0.5-0.6,1.1-1.1,2-1.1c1.1,0,1.9,0.7,1.9,1.8c0,0.3-0.1,0.6-0.1,0.9l-0.9,3.3
			h-0.9l0.9-3.3c0.1-0.2,0.1-0.5,0.1-0.7c0-0.8-0.5-1.2-1.3-1.2c-0.9,0-1.8,0.8-2.1,1.9l-0.9,3.3h-0.9L279.2,250.3z"/>
		<path fill="#FCFCFC" d="M288.7,255.1c0-0.2,0-0.4,0.1-0.6l0.9-3.4h-0.8l0.2-0.8h0.8l0.5-1.8h0.9l-0.5,1.8h1.8l-0.2,0.8h-1.8
			l-0.9,3.4c0,0.1,0,0.3,0,0.4c0,0.4,0.3,0.6,0.8,0.6c0.3,0,0.5-0.1,0.8-0.2l-0.2,0.8c-0.3,0.1-0.6,0.2-0.9,0.2
			C289.2,256.2,288.7,255.8,288.7,255.1z"/>
		<path fill="#FCFCFC" d="M294.7,247.9h0.9l-0.9,3.4c0.5-0.6,1.1-1.1,2-1.1c1.1,0,1.9,0.7,1.9,1.8c0,0.3-0.1,0.6-0.1,0.9l-0.9,3.3
			h-0.9l0.9-3.3c0.1-0.2,0.1-0.5,0.1-0.7c0-0.8-0.5-1.2-1.3-1.2c-0.9,0-1.8,0.8-2.1,1.9l-0.9,3.3h-0.9L294.7,247.9z"/>
		<path fill="#FCFCFC" d="M300.7,253.7c0,1.1,0.7,1.8,1.8,1.8c0.8,0,1.3-0.3,1.8-0.7l0.5,0.6c-0.6,0.5-1.3,0.9-2.3,0.9
			c-1.5,0-2.6-1-2.6-2.5c0-1.8,1.4-3.6,3.4-3.6c1.5,0,2.3,1,2.3,2.2c0,0.4-0.1,0.8-0.2,1.1h-4.6
			C300.7,253.6,300.7,253.7,300.7,253.7z M304.6,252.9c0-0.1,0.1-0.2,0.1-0.5c0-0.8-0.5-1.5-1.5-1.5c-1.2,0-2,0.9-2.4,2L304.6,252.9
			L304.6,252.9z"/>
		<path fill="#FCFCFC" d="M310.4,250.3h0.9l0.3,4.7l2.8-4.7h0.7l0.3,4.7l2.8-4.7h0.9l-3.6,5.9h-0.8l-0.3-4.6l-2.8,4.6h-0.8
			L310.4,250.3z"/>
		<path fill="#FCFCFC" d="M319.3,253.6c0-1.8,1.6-3.5,3.4-3.5c1.6,0,2.7,1.1,2.7,2.6c0,1.9-1.6,3.5-3.4,3.5
			C320.3,256.3,319.3,255.2,319.3,253.6z M324.5,252.8c0-1.2-0.7-1.9-1.8-1.9c-1.3,0-2.5,1.3-2.5,2.7c0,1.2,0.7,1.9,1.8,1.9
			C323.3,255.5,324.5,254.2,324.5,252.8z"/>
		<path fill="#FCFCFC" d="M327.7,250.3h0.9l-0.4,1.5c0.7-1,1.6-1.7,2.8-1.6l-0.2,0.9h-0.1c-1.3,0-2.6,0.9-3,2.7l-0.6,2.3h-0.9
			L327.7,250.3z"/>
		<path fill="#FCFCFC" d="M332.9,247.9h0.9l-2.2,8.2h-0.9L332.9,247.9z"/>
		<path fill="#FCFCFC" d="M334,253.8c0-2.1,1.6-3.6,3.3-3.6c1.2,0,1.9,0.7,2.2,1.4l1-3.7h0.9l-2.2,8.2h-0.9l0.3-1
			c-0.6,0.6-1.3,1.1-2.2,1.1C335,256.3,334,255.3,334,253.8z M339.2,252.7c0-1-0.7-1.8-1.8-1.8c-1.4,0-2.4,1.3-2.4,2.8
			c0,1.1,0.7,1.8,1.6,1.8C337.9,255.5,339.2,254.2,339.2,252.7z"/>
	</g>
	<path fill="#FFFFFF" d="M356.6,269.5c0,3.6-2.9,7-6.5,7c-3.6,0-6.5-2.9-6.5-6.5c0-3.6,2.9-6.5,6.5-6.5S356.6,265.9,356.6,269.5z"/>
	<path fill="#FFFFFF" d="M356.6,270.5l-3,1.4l-2.3,1l-7.1-3.5c0,0,0-2.2,0.9-3.3c1.3-1.6,3.5-3.4,3.4-6.1c-0.1-2.2-1.7-4.6-3.7-7.2
		C344.7,252.7,358.4,259,356.6,270.5z"/>
</g>
</svg>
