<?xml version="1.0" encoding="utf-8"?>
<!-- Generator: Adobe Illustrator 18.1.0, SVG Export Plug-In . SVG Version: 6.00 Build 0)  -->
<!DOCTYPE svg PUBLIC "-//W3C//DTD SVG 1.1//EN" "http://www.w3.org/Graphics/SVG/1.1/DTD/svg11.dtd">
<svg version="1.1" id="Layer_1" xmlns="http://www.w3.org/2000/svg" xmlns:xlink="http://www.w3.org/1999/xlink" x="0px" y="0px"
	 viewBox="0 0 500 419.8" enable-background="new 0 0 500 419.8" xml:space="preserve">
<path d="M487.4,47.7c3.4-12.5,0-26.2-11.3-34.1c-5.7-4.6-12.5-6.8-20.4-6.8c-5.7,0-11.3,1.1-15.9,4.6C429.5,17,419.3,21.6,407.8,25
	c-21.7-15.9-47.8-25-74-25c-61.4,0-112.6,45.5-120.5,105.7c-48.9-10.2-94.4-37.5-126.3-77.3c-5.7-8-15.9-11.3-25-11.3h-2.2
	c-10.2,1.1-20.4,6.8-25,15.9C23.3,51,17.7,72.7,17.7,94.2c0,14.8,2.2,28.4,6.8,42.1c-5.7,5.7-8,13.7-8,21.7
	c0,31.9,12.5,61.4,31.9,83.1c-1.1,5.7-1.1,11.3,1.1,17.1c6.8,21.7,19.3,41,36.4,54.6c-10.2,2.2-21.7,3.4-33,3.4
	c-5.7,0-11.3,0-17.1-1.1h-3.4c-13.7,0-26.2,8-30.7,21.7c-4.6,13.7,0,29.5,12.5,37.5c46.6,29.5,100.1,45.5,154.7,45.5
	c178.6-0.3,285.4-143.6,286.6-283.5c14.8-12.5,27.3-26.2,37.5-42.1c4.6-5.7,6.8-12.5,6.8-19.3C501,63.6,495.4,53.3,487.4,47.7
	L487.4,47.7z"/>
</svg>
