<?xml version="1.0" encoding="iso-8859-1"?>
<!-- Generator: Adobe Illustrator 18.0.0, SVG Export Plug-In . SVG Version: 6.00 Build 0)  -->
<!DOCTYPE svg PUBLIC "-//W3C//DTD SVG 1.1//EN" "http://www.w3.org/Graphics/SVG/1.1/DTD/svg11.dtd">
<svg version="1.1" id="Layer_1" xmlns="http://www.w3.org/2000/svg" xmlns:xlink="http://www.w3.org/1999/xlink" x="0px" y="0px"
	 viewBox="0 0 360 360" style="enable-background:new 0 0 360 360;" xml:space="preserve">
<path style="fill-rule:evenodd;clip-rule:evenodd;fill:#FFFFFF;" d="M257.936,153.794c-0.025,1.661-0.713,3.545-2.127,5.146
	c-0.406,0.46-0.85,0.888-1.283,1.322c-22.536,22.54-45.073,45.081-67.61,67.621c-4.257,4.259-9.09,4.254-13.353-0.008
	c-22.686-22.681-45.373-45.36-68.058-68.041c-3.025-3.025-3.796-6.732-2.132-10.191c2.4-4.987,8.858-6.387,13.119-2.817
	c0.877,0.735,1.661,1.581,2.472,2.392c20.105,20.103,40.214,40.204,60.295,60.332c0.777,0.779,1.163,0.809,1.96,0.01
	c20.541-20.596,41.118-41.155,61.672-61.739c2.675-2.679,5.741-3.715,9.39-2.486C255.682,146.479,257.931,149.728,257.936,153.794z"
	/>
</svg>
