<?xml version="1.0" encoding="iso-8859-1"?>
<!-- Generator: Adobe Illustrator 18.0.0, SVG Export Plug-In . SVG Version: 6.00 Build 0)  -->
<!DOCTYPE svg PUBLIC "-//W3C//DTD SVG 1.1//EN" "http://www.w3.org/Graphics/SVG/1.1/DTD/svg11.dtd">
<svg version="1.1" id="Layer_1" xmlns="http://www.w3.org/2000/svg" xmlns:xlink="http://www.w3.org/1999/xlink" x="0px" y="0px"
	 viewBox="0 0 360 360" style="enable-background:new 0 0 360 360;" xml:space="preserve">
<g>
	<g>
		<path style="fill-rule:evenodd;clip-rule:evenodd;fill:#FFFFFF;" d="M223.392,95.16c-28.438,0-56.875,0.035-85.312-0.02
			c-9.589-0.018-16.697-4.414-20.666-13.132c-6.476-14.226,3.561-30.244,19.223-31.013c0.722-0.035,1.445-0.043,2.168-0.043
			c56.489-0.002,112.978,0.008,169.467-0.012c9.179-0.003,16.262,3.706,20.68,11.805c7.68,14.081-2.356,31.66-18.368,32.372
			c-0.77,0.034-1.541,0.04-2.313,0.04C279.977,95.16,251.684,95.16,223.392,95.16z"/>
		<path style="fill-rule:evenodd;clip-rule:evenodd;fill:#FFFFFF;" d="M223.538,160.439c28.486,0.001,56.973-0.043,85.459,0.024
			c9.655,0.022,16.71,4.536,20.693,13.319c6.037,13.316-3.036,29.038-17.528,30.66c-1.051,0.119-2.111,0.212-3.167,0.212
			c-57.021,0.01-114.041,0.011-171.062,0.007c-11.006-0.001-20.023-7.405-22.092-18.109c-2.555-13.211,7.635-25.925,21.083-26.071
			c12.627-0.137,25.256-0.041,37.884-0.043C191.051,160.436,207.294,160.438,223.538,160.439z"/>
		<path style="fill-rule:evenodd;clip-rule:evenodd;fill:#FFFFFF;" d="M223.437,314.612c-28.535,0-57.068,0.005-85.603-0.003
			c-11.05-0.003-20.022-7.467-22.051-18.309c-2.302-12.302,6.809-24.481,19.227-25.688c1.101-0.107,2.209-0.199,3.314-0.199
			c56.779-0.009,113.558-0.021,170.337,0.005c9.492,0.004,16.634,4.182,20.764,12.787c6.451,13.438-2.292,29.242-17.075,31.205
			c-1.202,0.16-2.398,0.201-3.601,0.201C280.313,314.613,251.874,314.613,223.437,314.612z"/>
		<path style="fill-rule:evenodd;clip-rule:evenodd;fill:#FFFFFF;" d="M63.421,217.156c-18.661,0.234-34.621-15.531-34.286-34.923
			c0.315-18.257,15.651-34.086,35.147-33.663c18.312,0.397,33.939,15.845,33.483,35.175
			C97.333,202.082,82.004,217.382,63.421,217.156z M63.49,152.035c-16.937-0.194-30.884,13.938-30.923,30.776
			c-0.04,16.828,13.837,30.898,30.781,30.956c17.017,0.058,30.997-14.017,30.994-30.885C94.34,166.012,80.392,151.876,63.49,152.035
			z"/>
		<path style="fill-rule:evenodd;clip-rule:evenodd;fill:#FFFFFF;" d="M63.343,327.058c-18.622,0.191-34.507-15.542-34.208-34.857
			c0.282-18.298,15.634-34.116,35.082-33.73c18.319,0.364,34.046,15.816,33.546,35.256
			C97.293,312.042,81.951,327.326,63.343,327.058z M32.609,292.696c-0.239,16.834,13.788,30.907,30.722,30.972
			c17.025,0.067,30.929-13.995,31.012-30.722c0.084-16.897-13.861-31.021-30.834-31.047
			C46.567,261.872,32.466,275.865,32.609,292.696z"/>
		<path style="fill-rule:evenodd;clip-rule:evenodd;fill:#FFFFFF;" d="M97.729,73.062c0.197,18.732-15.653,34.6-34.973,34.239
			c-18.224-0.342-34.065-15.69-33.615-35.201c0.419-18.124,15.697-33.906,35.228-33.426C82.717,39.124,97.972,54.468,97.729,73.062z
			 M94.298,73.078c0.248-16.893-13.853-30.916-30.709-30.984c-16.956-0.069-30.93,13.915-31.023,30.715
			c-0.092,16.831,13.773,31.021,30.826,31.054C80.411,103.897,94.449,89.824,94.298,73.078z"/>
		<path style="fill-rule:evenodd;clip-rule:evenodd;fill:#FFFFFF;" d="M63.758,205.007c-4.191,0-8.383-0.037-12.574,0.024
			c-1.141,0.016-1.502-0.318-1.492-1.475c0.051-5.926,0.03-11.851,0.015-17.777c-0.002-0.697,0.052-1.372,0.544-1.882
			c1.268-1.318,2.559-2.615,3.87-3.89c0.477-0.465,1.122-0.461,1.762-0.459c3.516,0.014,7.033,0.012,10.55,0.004
			c1.424-0.002,2.07-0.653,2.082-2.092c0.013-1.638,0.005-3.276,0.003-4.914c-0.002-1.889-0.9-2.801-2.765-2.803
			c-1.878-0.003-3.758,0.036-5.636-0.018c-0.777-0.022-0.945,0.248-0.966,0.983c-0.098,3.373-0.123,3.373-3.528,3.373
			c-1.542,0-3.084-0.03-4.625,0.01c-0.895,0.023-1.323-0.25-1.298-1.231c0.053-2.07,0.015-4.143,0.018-6.214
			c0.001-0.24-0.006-0.489,0.055-0.717c0.494-1.874,5.126-5.423,7.069-5.428c4.722-0.011,9.443-0.006,14.164-0.043
			c1.329-0.01,2.402,0.409,3.328,1.379c4.232,4.434,3.614,2.517,3.657,8.877c0.025,3.806-0.02,7.612,0.018,11.418
			c0.013,1.289-0.546,2.187-1.321,3.196c-2.232,2.907-5.008,3.997-8.628,3.551c-2.088-0.257-4.234-0.054-6.353-0.045
			c-1.639,0.006-2.562,0.91-2.523,2.57c0.033,1.421-0.622,3.323,0.278,4.124c0.79,0.702,2.654,0.217,4.044,0.221
			c4.288,0.01,8.576,0.04,12.863-0.02c1.209-0.016,1.651,0.438,1.634,1.589c-0.03,2.072-0.033,4.143,0.002,6.215
			c0.018,1.091-0.372,1.516-1.528,1.5C72.238,204.971,67.998,205.007,63.758,205.007z"/>
		<path style="fill-rule:evenodd;clip-rule:evenodd;fill:#FFFFFF;" d="M63.849,315.219c-2.506,0-5.012,0-7.518,0
			c-0.241,0-0.483,0.022-0.723,0.003c-1.325-0.104-5.565-4.431-5.591-5.773c-0.041-2.12,0.006-4.241-0.021-6.362
			c-0.011-0.864,0.347-1.211,1.209-1.202c2.361,0.026,4.724,0.043,7.085-0.005c1.065-0.022,1.137,0.618,1.173,1.396
			c0.125,2.668,0.13,2.667,2.833,2.667c1.398,0,2.796,0,4.193,0c1.168,0.001,1.777-0.627,1.814-1.748
			c0.048-1.444,0.033-2.891,0.006-4.337c-0.023-1.226-1.044-2.251-2.277-2.273c-1.638-0.03-3.278-0.03-4.916,0.003
			c-0.674,0.013-1.033-0.062-1.011-0.909c0.064-2.505,0.049-5.013,0.007-7.518c-0.012-0.711,0.216-0.892,0.896-0.875
			c1.782,0.044,3.566,0.001,5.349,0.019c1.314,0.014,1.931-0.661,1.953-1.921c0.023-1.3,0.015-2.603,0.003-3.904
			c-0.015-1.621-0.946-2.536-2.59-2.545c-1.735-0.009-3.472,0.032-5.205-0.017c-0.779-0.023-1.07,0.157-1.083,1.015
			c-0.047,3.05-0.084,3.05-3.108,3.049c-1.687,0-3.374-0.021-5.061,0.007c-0.923,0.014-1.291-0.37-1.273-1.3
			c0.039-2.072,0.023-4.144,0.005-6.217c-0.005-0.559,0.128-1.082,0.492-1.463c1.297-1.357,2.632-2.678,3.964-4.001
			c0.373-0.371,0.867-0.354,1.356-0.354c5.398,0.006,10.796,0.004,16.194,0.004c0.144,0,0.291-0.012,0.433,0.006
			c1.362,0.182,5.324,4.613,5.328,5.998c0.013,4.096-0.046,8.195,0.03,12.289c0.029,1.567-1.036,2.346-1.971,3.169
			c-1.073,0.946-1.205,1.659,0.009,2.516c1.647,1.164,2.076,2.765,1.978,4.754c-0.156,3.173-0.049,6.359-0.036,9.541
			c0.002,0.635,0.024,1.285-0.437,1.768c-1.33,1.392-2.68,2.765-4.051,4.118c-0.438,0.433-1.042,0.411-1.631,0.407
			C69.055,315.211,66.453,315.219,63.849,315.219z"/>
		<path style="fill-rule:evenodd;clip-rule:evenodd;fill:#FFFFFF;" d="M68.516,73.325c0,6.836-0.024,13.674,0.023,20.51
			c0.009,1.192-0.328,1.633-1.557,1.583c-2.115-0.086-4.239-0.091-6.353,0.002c-1.182,0.052-1.505-0.403-1.496-1.494
			c0.034-4.285,0.014-8.57,0.014-12.855c0-6.404-0.022-12.807,0.022-19.21c0.007-1.007-0.265-1.313-1.281-1.286
			c-2.651,0.07-3.748,0.446-2.112-3.051c0.788-1.684,1.426-3.44,2.099-5.176c0.333-0.857,0.82-1.264,1.825-1.23
			c2.404,0.081,4.816,0.091,7.22,0.001c1.323-0.05,1.626,0.481,1.618,1.697C68.493,59.651,68.516,66.488,68.516,73.325z"/>
	</g>
</g>
</svg>
