<?xml version="1.0" encoding="iso-8859-1"?>
<!-- Generator: Adobe Illustrator 18.0.0, SVG Export Plug-In . SVG Version: 6.00 Build 0)  -->
<!DOCTYPE svg PUBLIC "-//W3C//DTD SVG 1.1//EN" "http://www.w3.org/Graphics/SVG/1.1/DTD/svg11.dtd">
<svg version="1.1" id="Layer_1" xmlns="http://www.w3.org/2000/svg" xmlns:xlink="http://www.w3.org/1999/xlink" x="0px" y="0px"
	 viewBox="0 228.324 613 335.353" style="enable-background:new 0 228.324 613 335.353;" xml:space="preserve">
<g id="Layer_2" style="display:none;">
	<rect x="-236.035" y="-23.489" style="display:inline;fill:#020202;" width="1011.385" height="1011.385"/>
</g>
<path style="fill:#FFFFFF;" d="M519.281,563.676c-65.861-73.545-144.131-114.399-249.722-114.399
	c-99.692,0-189.053,44.237-249.525,114.152c0,0,97.916-44.703,249.624-44.703C394.676,518.726,519.281,563.676,519.281,563.676z"/>
<g>
	<path style="fill:#FFFFFF;" d="M104.982,366.074v0.607c-0.273,0.809-0.677,1.416-1.214,1.82c-0.135,0-0.202,0.034-0.202,0.101
		c0,0.07-0.067,0.101-0.202,0.101l-0.202,0.202h-0.405l-0.405,0.202H77.067c-1.486,0-2.427-0.944-2.832-2.832l-14.159-50.974
		l-1.416-10.114l-1.214,10.114l-15.778,50.974c-0.677,1.888-1.688,2.832-3.034,2.832H13.35c-0.135,0-0.202-0.031-0.202-0.101
		c0-0.065-0.067-0.101-0.202-0.101s-0.236-0.031-0.303-0.101c-0.07-0.067-0.171-0.101-0.303-0.101c-0.135,0-0.202-0.065-0.202-0.202
		c-0.809-0.405-1.214-1.011-1.214-1.82c-0.135,0-0.202-0.067-0.202-0.202v-0.405L0,230.953c0-0.674,0.27-1.315,0.809-1.922
		c0.537-0.607,1.214-0.91,2.023-0.91h23.869c0.809,0,1.517,0.303,2.124,0.91c0.607,0.607,0.91,1.247,0.91,1.922l4.855,68.774
		l11.53-31.353c0.27-0.674,0.739-1.315,1.416-1.922c0.674-0.607,1.416-0.91,2.225-0.91h16.182c0.809,0,1.548,0.303,2.225,0.91
		c0.674,0.607,1.214,1.247,1.618,1.922l11.327,31.353l5.057-68.774c0-0.674,0.27-1.315,0.809-1.922
		c0.537-0.607,1.214-0.91,2.023-0.91h24.071c0.671,0,1.315,0.303,1.922,0.91c0.607,0.607,0.91,1.247,0.91,1.922L104.982,366.074z"/>
	<path style="fill:#FFFFFF;" d="M241.111,230.549v135.728c0,1.888-0.944,2.832-2.832,2.832h-24.071c-0.677,0-1.315-0.27-1.922-0.809
		c-0.607-0.537-0.91-1.214-0.91-2.023V313.28h-30.342v52.997c0,0.809-0.303,1.483-0.91,2.023c-0.607,0.539-1.247,0.809-1.922,0.809
		h-24.071c-1.891,0-2.832-0.944-2.832-2.832V230.549c0-1.888,0.941-2.832,2.832-2.832h24.071c0.674,0,1.315,0.273,1.922,0.809
		c0.607,0.539,0.91,1.214,0.91,2.023v52.997h30.342v-52.997c0-0.809,0.303-1.483,0.91-2.023c0.607-0.537,1.245-0.809,1.922-0.809
		h24.071C240.165,227.717,241.111,228.661,241.111,230.549z"/>
	<path style="fill:#FFFFFF;" d="M308.469,231.156v135.121c0,1.888-0.947,2.832-2.835,2.832h-24.068
		c-1.891,0-2.832-0.944-2.832-2.832V231.156c0-1.888,0.941-2.832,2.832-2.832h24.068
		C307.523,228.324,308.469,229.268,308.469,231.156z"/>
	<path style="fill:#FFFFFF;" d="M438.331,230.346v135.728c0,0.677-0.273,1.315-0.809,1.922c-0.539,0.607-1.216,0.91-2.023,0.91
		h-31.96c-0.809,0-1.554-0.303-2.225-0.91c-0.677-0.607-1.149-1.245-1.419-1.922l-24.678-67.56v67.56
		c0,0.677-0.301,1.315-0.907,1.922c-0.607,0.607-1.247,0.91-1.924,0.91h-24.068c-0.809,0-1.483-0.303-2.023-0.91
		c-0.542-0.607-0.812-1.245-0.812-1.922V230.346c0-1.885,0.944-2.832,2.835-2.832h30.139c1.481,0,2.427,0.944,2.832,2.832h0.202
		l26.701,78.079l0.407,2.225v-80.304c0-0.809,0.301-1.481,0.907-2.023c0.61-0.537,1.245-0.809,1.924-0.809h24.071
		C437.384,227.515,438.331,228.459,438.331,230.346z"/>
	<path style="fill:#FFFFFF;" d="M506.9,283.545h35.803c1.888,0,2.832,0.944,2.832,2.832v24.071c0,1.891-0.944,2.832-2.832,2.832
		H506.9v26.094h46.726c0.674,0,1.315,0.272,1.924,0.809c0.607,0.539,0.907,1.214,0.907,2.023v24.071
		c0,0.809-0.301,1.483-0.907,2.023c-0.61,0.539-1.247,0.809-1.924,0.809h-73.629c-1.891,0-2.832-0.944-2.832-2.832V230.549
		c0-1.888,0.941-2.832,2.832-2.832h73.629c0.674,0,1.315,0.273,1.924,0.809c0.607,0.539,0.907,1.214,0.907,2.023v24.071
		c0,0.809-0.301,1.486-0.907,2.023c-0.61,0.539-1.247,0.809-1.924,0.809H506.9V283.545z"/>
</g>
<g>
	<path style="fill:#FCFCFC;" d="M16.993,389.939H9.529l0.633-2.309h17.429l-0.633,2.309h-7.467l-5.313,19.833H11.68L16.993,389.939z
		"/>
	<path style="fill:#FCFCFC;" d="M31.225,386.681h2.435l-2.53,9.396c1.486-1.676,3.194-3.004,5.693-3.004
		c3.163,0,5.218,1.961,5.218,5.06c0,0.762-0.19,1.676-0.411,2.53l-2.404,9.111h-2.435l2.467-9.269
		c0.158-0.535,0.253-1.297,0.253-1.834c0-2.151-1.392-3.416-3.669-3.416c-2.53,0-5.06,2.182-5.917,5.282l-2.467,9.238h-2.432
		L31.225,386.681z"/>
	<path style="fill:#FCFCFC;" d="M47.826,403.098c0,2.973,1.898,4.934,4.934,4.934c2.119,0,3.542-0.727,5.031-1.929l1.265,1.616
		c-1.613,1.36-3.542,2.435-6.42,2.435c-4.333,0-7.242-2.812-7.242-6.958c0-4.997,4.048-10.123,9.52-10.123
		c4.143,0,6.328,2.846,6.328,6.262c0,1.11-0.221,2.151-0.569,3.099H47.861C47.826,402.655,47.826,402.877,47.826,403.098z
		 M58.708,400.6c0.095-0.285,0.158-0.696,0.158-1.265c0-2.245-1.265-4.206-4.083-4.206c-3.226,0-5.693,2.467-6.578,5.471H58.708z"/>
	<path style="fill:#FCFCFC;" d="M76.891,393.421h2.435l-0.696,2.657c1.486-1.676,3.036-3.005,5.44-3.005
		c2.751,0,4.206,1.803,4.649,3.7c1.455-2.245,3.669-3.7,6.581-3.7c2.941,0,4.997,2.024,4.997,5.06c0,0.762-0.253,1.676-0.443,2.53
		l-2.435,9.111h-2.435l2.498-9.269c0.127-0.535,0.221-1.297,0.221-1.834c0-2.119-1.265-3.416-3.384-3.416
		c-2.404,0-4.839,2.245-5.661,5.282l-2.435,9.238h-2.435l2.467-9.269c0.158-0.535,0.253-1.297,0.253-1.834
		c0-2.119-1.297-3.416-3.416-3.416c-2.404,0-4.839,2.245-5.661,5.282l-2.467,9.238h-2.435L76.891,393.421z"/>
	<path style="fill:#FCFCFC;" d="M103.583,402.816c0-5.092,4.396-9.744,9.617-9.744c4.491,0,7.464,3.068,7.464,7.306
		c0,5.218-4.523,9.773-9.646,9.773C106.525,410.151,103.583,407.051,103.583,402.816z M118.166,400.473
		c0-3.321-2.087-5.25-5.123-5.25c-3.764,0-6.992,3.732-6.992,7.527c0,3.321,2.09,5.218,5.126,5.218
		C114.845,407.969,118.166,404.366,118.166,400.473z"/>
	<path style="fill:#FCFCFC;" d="M122.024,407.273l1.581-1.581c1.771,1.708,3.732,2.404,5.693,2.404c1.866,0,3.605-1.075,3.605-2.72
		c0-1.075-0.727-1.866-3.099-2.783c-2.941-1.139-4.617-2.217-4.617-4.491c0-2.783,2.404-5.029,6.199-5.029
		c2.404,0,4.681,1.075,6.044,2.245l-1.423,1.676c-1.36-1.11-3.068-1.898-4.842-1.898c-2.309,0-3.542,1.233-3.542,2.593
		c0,1.075,0.664,1.768,3.258,2.783c2.941,1.202,4.459,2.372,4.459,4.491c0,3.036-2.783,5.155-6.262,5.155
		C126.547,410.122,123.922,409.17,122.024,407.273z"/>
	<path style="fill:#FCFCFC;" d="M139.988,406.83c0-0.566,0.095-1.202,0.221-1.708l2.562-9.551h-2.245l0.569-2.151h2.277l1.328-4.937
		h2.404l-1.328,4.937h5.155l-0.569,2.151h-5.155l-2.53,9.425c-0.066,0.38-0.129,0.854-0.129,1.202c0,1.139,0.854,1.676,2.245,1.676
		c0.727,0,1.486-0.158,2.372-0.506l-0.601,2.214c-0.854,0.348-1.645,0.474-2.593,0.474
		C141.633,410.056,139.988,408.949,139.988,406.83z"/>
	<path style="fill:#FCFCFC;" d="M164.654,393.421h2.435l-0.696,2.657c1.486-1.676,3.194-3.005,5.693-3.005
		c3.163,0,5.218,1.961,5.218,5.06c0,0.762-0.19,1.676-0.411,2.53l-2.404,9.111h-2.435l2.467-9.269
		c0.158-0.535,0.253-1.297,0.253-1.834c0-2.151-1.392-3.416-3.669-3.416c-2.53,0-5.06,2.182-5.917,5.282l-2.467,9.238h-2.435
		L164.654,393.421z"/>
	<path style="fill:#FCFCFC;" d="M183.092,403.098c0,2.973,1.898,4.934,4.934,4.934c2.119,0,3.542-0.727,5.029-1.929l1.265,1.616
		c-1.613,1.36-3.542,2.435-6.42,2.435c-4.333,0-7.245-2.812-7.245-6.958c0-4.997,4.048-10.123,9.522-10.123
		c4.143,0,6.328,2.846,6.328,6.262c0,1.11-0.221,2.151-0.569,3.099h-12.812C183.092,402.655,183.092,402.877,183.092,403.098z
		 M193.971,400.6c0.095-0.285,0.158-0.696,0.158-1.265c0-2.245-1.265-4.206-4.08-4.206c-3.226,0-5.693,2.467-6.578,5.471H193.971z"
		/>
	<path style="fill:#FCFCFC;" d="M197.355,412.048l1.518-1.708c1.739,1.486,3.953,2.464,6.452,2.464c2.056,0,3.605-0.661,4.586-1.676
		c1.012-0.98,1.581-2.243,2.056-3.922l0.443-1.642c-1.645,1.676-3.574,2.938-6.262,2.938c-3.416,0-6.644-2.243-6.644-6.167
		c0-5.443,4.586-9.269,9.172-9.269c3.511,0,5.092,1.961,6.009,3.922l0.949-3.574h2.435l-3.732,14.01
		c-0.696,2.533-1.486,3.988-2.657,5.158c-1.518,1.515-3.542,2.309-6.325,2.309C202.352,414.898,199.38,413.822,197.355,412.048z
		 M213.836,399.841c0-2.406-1.898-4.617-5.031-4.617c-3.479,0-6.736,2.878-6.736,6.8c0,2.91,2.277,4.396,4.776,4.396
		C210.547,406.419,213.836,403.193,213.836,399.841z"/>
	<path style="fill:#FCFCFC;" d="M219.209,405.597c0-3.669,3.068-5.917,7.274-5.917c2.182,0,4.238,0.443,5.819,0.888l0.095-0.38
		c0.127-0.474,0.221-1.078,0.221-1.518c0-2.119-1.455-3.321-4.428-3.321c-1.739,0-3.163,0.348-4.617,0.854l-0.411-2.024
		c1.616-0.601,3.292-0.98,5.408-0.98c4.111,0,6.42,1.898,6.42,5.06c0,0.696-0.126,1.489-0.348,2.245l-2.467,9.269h-2.372
		l0.696-2.565c-1.518,1.739-3.511,2.913-6.107,2.913C221.645,410.122,219.209,408.506,219.209,405.597z M231.578,403.351
		l0.316-1.139c-1.423-0.414-3.289-0.73-5.313-0.73c-2.91,0-4.902,1.584-4.902,3.83c0,1.737,1.36,2.91,3.479,2.91
		C227.907,408.222,230.787,406.229,231.578,403.351z"/>
	<path style="fill:#FCFCFC;" d="M238.913,406.83c0-0.566,0.095-1.202,0.221-1.708l2.562-9.551h-2.245l0.569-2.151h2.277l1.328-4.937
		h2.404l-1.328,4.937h5.155l-0.569,2.151h-5.155l-2.53,9.425c-0.063,0.38-0.127,0.854-0.127,1.202c0,1.139,0.854,1.676,2.245,1.676
		c0.727,0,1.486-0.158,2.372-0.506l-0.601,2.214c-0.854,0.348-1.645,0.474-2.593,0.474
		C240.557,410.056,238.913,408.949,238.913,406.83z"/>
	<path style="fill:#FCFCFC;" d="M254.346,393.421h2.435l-4.396,16.354h-2.435L254.346,393.421z M255.864,387.156h2.783l-0.727,2.691
		h-2.783L255.864,387.156z"/>
	<path style="fill:#FCFCFC;" d="M260.324,393.421h2.562l1.834,13.571l9.045-13.571h2.751l-11.42,16.477h-2.151L260.324,393.421z"/>
	<path style="fill:#FCFCFC;" d="M278.762,403.098c0,2.973,1.898,4.934,4.937,4.934c2.116,0,3.539-0.727,5.029-1.929l1.262,1.616
		c-1.613,1.36-3.539,2.435-6.417,2.435c-4.336,0-7.245-2.812-7.245-6.958c0-4.997,4.048-10.123,9.522-10.123
		c4.14,0,6.325,2.846,6.325,6.262c0,1.11-0.221,2.151-0.569,3.099h-12.812C278.762,402.655,278.762,402.877,278.762,403.098z
		 M289.644,400.6c0.092-0.285,0.158-0.696,0.158-1.265c0-2.245-1.265-4.206-4.08-4.206c-3.226,0-5.693,2.467-6.581,5.471H289.644z"
		/>
	<path style="fill:#FCFCFC;" d="M302.732,407.273l1.584-1.581c1.771,1.708,3.732,2.404,5.696,2.404c1.863,0,3.605-1.075,3.605-2.72
		c0-1.075-0.727-1.866-3.099-2.783c-2.944-1.139-4.62-2.217-4.62-4.491c0-2.783,2.404-5.029,6.199-5.029
		c2.404,0,4.681,1.075,6.044,2.245l-1.423,1.676c-1.363-1.11-3.068-1.898-4.842-1.898c-2.309,0-3.542,1.233-3.542,2.593
		c0,1.075,0.664,1.768,3.26,2.783c2.938,1.202,4.459,2.372,4.459,4.491c0,3.036-2.783,5.155-6.262,5.155
		C307.254,410.122,304.629,409.17,302.732,407.273z"/>
	<path style="fill:#FCFCFC;" d="M323.763,393.421h2.438l-4.396,16.354h-2.438L323.763,393.421z M325.281,387.156h2.783l-0.727,2.691
		h-2.783L325.281,387.156z"/>
	<path style="fill:#FCFCFC;" d="M329.361,406.83c0-0.566,0.095-1.202,0.221-1.708l2.565-9.551h-2.245l0.566-2.151h2.28l1.328-4.937
		h2.404l-1.328,4.937h5.155l-0.569,2.151h-5.155l-2.53,9.425c-0.066,0.38-0.127,0.854-0.127,1.202c0,1.139,0.854,1.676,2.245,1.676
		c0.727,0,1.486-0.158,2.369-0.506l-0.601,2.214c-0.854,0.348-1.642,0.474-2.59,0.474
		C331.008,410.056,329.361,408.949,329.361,406.83z"/>
	<path style="fill:#FCFCFC;" d="M343.277,403.098c0,2.973,1.898,4.934,4.937,4.934c2.116,0,3.539-0.727,5.029-1.929l1.262,1.616
		c-1.61,1.36-3.539,2.435-6.417,2.435c-4.336,0-7.245-2.812-7.245-6.958c0-4.997,4.048-10.123,9.522-10.123
		c4.14,0,6.325,2.846,6.325,6.262c0,1.11-0.221,2.151-0.569,3.099h-12.812C343.277,402.655,343.277,402.877,343.277,403.098z
		 M354.159,400.6c0.092-0.285,0.158-0.696,0.158-1.265c0-2.245-1.265-4.206-4.08-4.206c-3.226,0-5.693,2.467-6.581,5.471H354.159z"
		/>
	<path style="fill:#FCFCFC;" d="M372.591,393.421h2.438l-4.396,16.354h-2.438L372.591,393.421z M374.112,387.156h2.783l-0.727,2.691
		h-2.783L374.112,387.156z"/>
	<path style="fill:#FCFCFC;" d="M380.691,393.421h2.438l-0.696,2.657c1.486-1.676,3.194-3.005,5.693-3.005
		c3.163,0,5.215,1.961,5.215,5.06c0,0.762-0.187,1.676-0.411,2.53l-2.404,9.111h-2.438l2.467-9.269
		c0.158-0.535,0.253-1.297,0.253-1.834c0-2.151-1.392-3.416-3.669-3.416c-2.53,0-5.06,2.182-5.914,5.282l-2.467,9.238h-2.435
		L380.691,393.421z"/>
	<path style="fill:#FCFCFC;" d="M407.067,406.83c0-0.566,0.095-1.202,0.221-1.708l2.565-9.551h-2.245l0.566-2.151h2.28l1.328-4.937
		h2.404l-1.328,4.937h5.155l-0.569,2.151h-5.155l-2.53,9.425c-0.063,0.38-0.127,0.854-0.127,1.202c0,1.139,0.854,1.676,2.245,1.676
		c0.727,0,1.486-0.158,2.369-0.506l-0.601,2.214c-0.854,0.348-1.642,0.474-2.59,0.474
		C408.711,410.056,407.067,408.949,407.067,406.83z"/>
	<path style="fill:#FCFCFC;" d="M424.085,386.681h2.435l-2.53,9.396c1.486-1.676,3.194-3.004,5.693-3.004
		c3.163,0,5.215,1.961,5.215,5.06c0,0.762-0.187,1.676-0.411,2.53l-2.404,9.111h-2.438l2.467-9.269
		c0.158-0.535,0.253-1.297,0.253-1.834c0-2.151-1.392-3.416-3.669-3.416c-2.53,0-5.06,2.182-5.914,5.282l-2.467,9.238h-2.435
		L424.085,386.681z"/>
	<path style="fill:#FCFCFC;" d="M440.686,403.098c0,2.973,1.898,4.934,4.937,4.934c2.116,0,3.542-0.727,5.029-1.929l1.265,1.616
		c-1.613,1.36-3.542,2.435-6.42,2.435c-4.336,0-7.245-2.812-7.245-6.958c0-4.997,4.048-10.123,9.522-10.123
		c4.143,0,6.325,2.846,6.325,6.262c0,1.11-0.221,2.151-0.569,3.099h-12.812C440.686,402.655,440.686,402.877,440.686,403.098z
		 M451.568,400.6c0.092-0.285,0.158-0.696,0.158-1.265c0-2.245-1.265-4.206-4.08-4.206c-3.226,0-5.693,2.467-6.581,5.471H451.568z"
		/>
	<path style="fill:#FCFCFC;" d="M467.882,393.421h2.467l0.854,13.03l7.909-13.096h2.024l0.917,13.096l7.875-13.03h2.53
		l-10.187,16.477h-2.151l-0.949-12.904l-7.875,12.904h-2.119L467.882,393.421z"/>
	<path style="fill:#FCFCFC;" d="M492.74,402.816c0-5.092,4.396-9.744,9.617-9.744c4.491,0,7.464,3.068,7.464,7.306
		c0,5.218-4.523,9.773-9.646,9.773C495.684,410.151,492.74,407.051,492.74,402.816z M507.322,400.473c0-3.321-2.087-5.25-5.123-5.25
		c-3.764,0-6.989,3.732-6.989,7.527c0,3.321,2.087,5.218,5.123,5.218C504.002,407.969,507.322,404.366,507.322,400.473z"/>
	<path style="fill:#FCFCFC;" d="M516.27,393.421h2.438l-1.11,4.27c1.992-2.846,4.523-4.744,7.783-4.557l-0.696,2.625h-0.161
		c-3.574,0-7.148,2.625-8.444,7.562l-1.739,6.452h-2.435L516.27,393.421z"/>
	<path style="fill:#FCFCFC;" d="M531.039,386.681h2.438l-6.199,23.09h-2.438L531.039,386.681z"/>
	<path style="fill:#FCFCFC;" d="M534.012,403.225c0-5.79,4.396-10.152,9.172-10.152c3.352,0,5.25,1.898,6.138,4.048l2.783-10.44
		h2.438l-6.17,23.09h-2.438l0.73-2.783c-1.55,1.768-3.542,3.163-6.167,3.163C536.798,410.151,534.012,407.368,534.012,403.225z
		 M548.468,400.283c0-2.846-2.059-5.06-5.063-5.06c-3.89,0-6.831,3.605-6.831,7.78c0,3.039,1.898,4.997,4.617,4.997
		C544.831,408,548.468,404.3,548.468,400.283z"/>
</g>
<path style="fill:#FFFFFF;" d="M608.64,426.96c6.877,21.396,7.462,48.698-11.993,46.594c-38.553-4.169-4.273-39.135-10.839-60.63
	c-5.355-17.522-28.201-17.977-14.067-16.851C585.311,397.16,601.76,405.563,608.64,426.96z"/>
<circle style="fill:#FFFFFF;" cx="595.143" cy="458.324" r="17.031"/>
</svg>
