<?xml version="1.0" encoding="iso-8859-1"?>
<!-- Generator: Adobe Illustrator 18.0.0, SVG Export Plug-In . SVG Version: 6.00 Build 0)  -->
<!DOCTYPE svg PUBLIC "-//W3C//DTD SVG 1.1//EN" "http://www.w3.org/Graphics/SVG/1.1/DTD/svg11.dtd">
<svg version="1.1" id="Layer_1" xmlns="http://www.w3.org/2000/svg" xmlns:xlink="http://www.w3.org/1999/xlink" x="0px" y="0px"
	 viewBox="0 0 197.747 49.968" style="enable-background:new 0 0 197.747 49.968;" xml:space="preserve">
<g>
	<path style="fill:#FFFFFF;" d="M37.368,48.96v0.216c-0.097,0.288-0.241,0.504-0.432,0.648c-0.048,0-0.072,0.012-0.072,0.036
		c0,0.025-0.024,0.036-0.072,0.036l-0.072,0.072h-0.144l-0.144,0.072h-9c-0.529,0-0.864-0.336-1.008-1.008l-5.04-18.144l-0.504-3.6
		l-0.432,3.6l-5.616,18.144c-0.241,0.672-0.601,1.008-1.08,1.008h-9c-0.048,0-0.072-0.011-0.072-0.036
		c0-0.023-0.024-0.036-0.072-0.036c-0.048,0-0.084-0.011-0.108-0.036c-0.025-0.024-0.061-0.036-0.108-0.036
		c-0.048,0-0.072-0.023-0.072-0.072c-0.288-0.144-0.432-0.36-0.432-0.648c-0.048,0-0.072-0.024-0.072-0.072V48.96L0,0.864
		c0-0.24,0.096-0.468,0.288-0.684c0.191-0.216,0.432-0.324,0.72-0.324h8.496c0.288,0,0.54,0.108,0.756,0.324
		c0.216,0.216,0.324,0.444,0.324,0.684l1.728,24.48l4.104-11.16c0.096-0.24,0.263-0.468,0.504-0.684
		c0.24-0.216,0.504-0.324,0.792-0.324h5.76c0.288,0,0.551,0.108,0.792,0.324c0.24,0.216,0.432,0.444,0.576,0.684l4.032,11.16
		l1.8-24.48c0-0.24,0.096-0.468,0.288-0.684c0.191-0.216,0.432-0.324,0.72-0.324h8.568c0.239,0,0.468,0.108,0.684,0.324
		c0.216,0.216,0.324,0.444,0.324,0.684L37.368,48.96z"/>
	<path style="fill:#FFFFFF;" d="M85.823,0.72v48.312c0,0.672-0.336,1.008-1.008,1.008h-8.568c-0.241,0-0.468-0.096-0.684-0.288
		c-0.216-0.191-0.324-0.432-0.324-0.72V30.168h-10.8v18.864c0,0.288-0.108,0.528-0.324,0.72c-0.216,0.192-0.444,0.288-0.684,0.288
		h-8.568c-0.673,0-1.008-0.336-1.008-1.008V0.72c0-0.672,0.335-1.008,1.008-1.008h8.568c0.24,0,0.468,0.097,0.684,0.288
		c0.216,0.192,0.324,0.432,0.324,0.72v18.864h10.8V0.72c0-0.288,0.108-0.528,0.324-0.72c0.216-0.191,0.443-0.288,0.684-0.288h8.568
		C85.486-0.288,85.823,0.048,85.823,0.72z"/>
	<path style="fill:#FFFFFF;" d="M109.799,0.936v48.096c0,0.672-0.337,1.008-1.009,1.008h-8.567c-0.673,0-1.008-0.336-1.008-1.008
		V0.936c0-0.671,0.335-1.008,1.008-1.008h8.567C109.462-0.072,109.799,0.265,109.799,0.936z"/>
	<path style="fill:#FFFFFF;" d="M156.023,0.648V48.96c0,0.241-0.097,0.468-0.288,0.684c-0.192,0.216-0.433,0.324-0.72,0.324h-11.376
		c-0.288,0-0.553-0.108-0.792-0.324c-0.241-0.216-0.409-0.443-0.505-0.684l-8.784-24.048V48.96c0,0.241-0.107,0.468-0.323,0.684
		c-0.216,0.216-0.444,0.324-0.685,0.324h-8.567c-0.288,0-0.528-0.108-0.72-0.324c-0.193-0.216-0.289-0.443-0.289-0.684V0.648
		c0-0.671,0.336-1.008,1.009-1.008h10.728c0.527,0,0.864,0.336,1.008,1.008h0.072l9.504,27.792l0.145,0.792V0.648
		c0-0.288,0.107-0.527,0.323-0.72c0.217-0.191,0.443-0.288,0.685-0.288h8.568C155.686-0.36,156.023-0.023,156.023,0.648z"/>
	<path style="fill:#FFFFFF;" d="M180.43,19.584h12.744c0.672,0,1.008,0.336,1.008,1.008v8.568c0,0.673-0.336,1.008-1.008,1.008
		H180.43v9.288h16.632c0.24,0,0.468,0.097,0.685,0.288c0.216,0.192,0.323,0.432,0.323,0.72v8.568c0,0.288-0.107,0.528-0.323,0.72
		c-0.217,0.192-0.444,0.288-0.685,0.288h-26.208c-0.673,0-1.008-0.336-1.008-1.008V0.72c0-0.672,0.335-1.008,1.008-1.008h26.208
		c0.24,0,0.468,0.097,0.685,0.288c0.216,0.192,0.323,0.432,0.323,0.72v8.568c0,0.288-0.107,0.529-0.323,0.72
		c-0.217,0.192-0.444,0.288-0.685,0.288H180.43V19.584z"/>
</g>
</svg>
