<?xml version="1.0" encoding="utf-8"?>
<!-- Generator: Adobe Illustrator 18.0.0, SVG Export Plug-In . SVG Version: 6.00 Build 0)  -->
<!DOCTYPE svg PUBLIC "-//W3C//DTD SVG 1.1//EN" "http://www.w3.org/Graphics/SVG/1.1/DTD/svg11.dtd">
<svg version="1.1" id="Layer_1" xmlns="http://www.w3.org/2000/svg" xmlns:xlink="http://www.w3.org/1999/xlink" x="0px" y="0px"
	 viewBox="0 0 100 100" enable-background="new 0 0 100 100" xml:space="preserve">
<path fill="#FFFFFF" d="M74.4,61.4c-3.5,0-6.7,1.4-9.2,3.6L39.1,51.7c0.1-0.7,0.2-1.4,0.2-2.1c0-0.4,0-0.8-0.1-1.2L65.6,35
	c2.4,2,5.4,3.2,8.8,3.2c7.5,0,13.6-6.1,13.6-13.6s-6.1-13.6-13.6-13.6c-7.5,0-13.7,6.1-13.7,13.6c0,0.4,0,0.8,0.1,1.2L34.5,39.2
	c-2.4-2-5.5-3.3-8.8-3.3C18.1,36,12,42.1,12,49.6s6.1,13.6,13.6,13.6c3,0,5.8-1,8.1-2.7l27,13.8c0,0.2,0,0.5,0,0.7
	c0,7.5,6.1,13.6,13.6,13.6c7.5,0,13.6-6.1,13.6-13.6C88,67.5,81.9,61.4,74.4,61.4z"/>
</svg>
