<?xml version="1.0" encoding="utf-8"?>
<!-- Generator: Adobe Illustrator 18.0.0, SVG Export Plug-In . SVG Version: 6.00 Build 0)  -->
<!DOCTYPE svg PUBLIC "-//W3C//DTD SVG 1.1//EN" "http://www.w3.org/Graphics/SVG/1.1/DTD/svg11.dtd">
<svg version="1.1" id="Layer_1" xmlns="http://www.w3.org/2000/svg" xmlns:xlink="http://www.w3.org/1999/xlink" x="0px" y="0px"
	 viewBox="0 0 297.6 58.1" enable-background="new 0 0 297.6 58.1" xml:space="preserve">
<path fill="#FFFFFF" d="M25.5,33.4L35.8,0h13.5l10.2,33.4L71.2,0h14.1L64.9,58.1h-9.6L42.6,17.7L29.9,58.1h-9.6L0,0h14.1L25.5,33.4z
	"/>
<path fill="#FFFFFF" d="M132.2,0h13v58.1h-13V35.3h-23.1v22.9h-13V0h13v24.3h23.1V0z"/>
<path fill="#FFFFFF" d="M159.5,0h13v58.1h-13V0z"/>
<path fill="#FFFFFF" d="M228.4,0h13v58.1h-13l-27.7-36.4v36.4h-13V0h12.1l28.5,37.4V0z"/>
<path fill="#FFFFFF" d="M297.6,0v11.6h-28.9v12h26v11.1h-26v12.1h29.8v11.5h-42.8V0H297.6z"/>
</svg>
